M48
; DRILL file {KiCad 9.0.6-9.0.6~ubuntu22.04.1} date 2025-12-07T13:12:43+0400
; FORMAT={3:3/ absolute / metric / suppress leading zeros}
; #@! TF.CreationDate,2025-12-07T13:12:43+04:00
; #@! TF.GenerationSoftware,Kicad,Pcbnew,9.0.6-9.0.6~ubuntu22.04.1
; #@! TF.FileFunction,Plated,1,2,PTH
FMAT,2
METRIC,TZ
; #@! TA.AperFunction,Plated,PTH,ComponentDrill
T1C0.889
; #@! TA.AperFunction,Plated,PTH,ComponentDrill
T2C1.000
; #@! TA.AperFunction,Plated,PTH,ComponentDrill
T3C1.500
%
G90
G05
T1
X39688Y-49530
X39688Y-64770
X42228Y-49530
X42228Y-64770
X44768Y-49530
X44768Y-64770
X47308Y-49530
X47308Y-64770
X49848Y-49530
X49848Y-64770
X52388Y-49530
X52388Y-64770
X54928Y-49530
X54928Y-64770
T2
X63976Y-30798
X63976Y-33338
X63976Y-35878
X63976Y-38417
X102095Y-52269
X102095Y-54769
X102095Y-57269
X116595Y-52269
X116595Y-57269
T3
X64929Y-54610
X71279Y-52070
X72072Y-73660
X78423Y-71120
X83979Y-54610
X90329Y-52070
X91123Y-73660
X97473Y-71120
T3
G00X108945Y-49169
M15
G01X110245Y-49169
M16
G05
G00X108945Y-60369
M15
G01X110245Y-60369
M16
G05
M30
