%TF.GenerationSoftware,KiCad,Pcbnew,9.0.6-9.0.6~ubuntu22.04.1*%
%TF.CreationDate,2025-12-08T20:59:35+04:00*%
%TF.ProjectId,HackPad,4861636b-5061-4642-9e6b-696361645f70,rev?*%
%TF.SameCoordinates,Original*%
%TF.FileFunction,Copper,L1,Top*%
%TF.FilePolarity,Positive*%
%FSLAX46Y46*%
G04 Gerber Fmt 4.6, Leading zero omitted, Abs format (unit mm)*
G04 Created by KiCad (PCBNEW 9.0.6-9.0.6~ubuntu22.04.1) date 2025-12-08 20:59:35*
%MOMM*%
%LPD*%
G01*
G04 APERTURE LIST*
G04 Aperture macros list*
%AMRoundRect*
0 Rectangle with rounded corners*
0 $1 Rounding radius*
0 $2 $3 $4 $5 $6 $7 $8 $9 X,Y pos of 4 corners*
0 Add a 4 corners polygon primitive as box body*
4,1,4,$2,$3,$4,$5,$6,$7,$8,$9,$2,$3,0*
0 Add four circle primitives for the rounded corners*
1,1,$1+$1,$2,$3*
1,1,$1+$1,$4,$5*
1,1,$1+$1,$6,$7*
1,1,$1+$1,$8,$9*
0 Add four rect primitives between the rounded corners*
20,1,$1+$1,$2,$3,$4,$5,0*
20,1,$1+$1,$4,$5,$6,$7,0*
20,1,$1+$1,$6,$7,$8,$9,0*
20,1,$1+$1,$8,$9,$2,$3,0*%
G04 Aperture macros list end*
%ADD10C,0.300000*%
%TA.AperFunction,NonConductor*%
%ADD11C,0.300000*%
%TD*%
%TA.AperFunction,ComponentPad*%
%ADD12C,2.200000*%
%TD*%
%TA.AperFunction,SMDPad,CuDef*%
%ADD13R,1.600000X0.850000*%
%TD*%
%TA.AperFunction,ComponentPad*%
%ADD14R,1.700000X1.700000*%
%TD*%
%TA.AperFunction,ComponentPad*%
%ADD15O,1.700000X1.700000*%
%TD*%
%TA.AperFunction,ComponentPad*%
%ADD16R,2.000000X2.000000*%
%TD*%
%TA.AperFunction,ComponentPad*%
%ADD17C,2.000000*%
%TD*%
%TA.AperFunction,ComponentPad*%
%ADD18R,3.200000X2.000000*%
%TD*%
%TA.AperFunction,SMDPad,CuDef*%
%ADD19RoundRect,0.152400X-0.609600X1.063600X-0.609600X-1.063600X0.609600X-1.063600X0.609600X1.063600X0*%
%TD*%
%TA.AperFunction,ComponentPad*%
%ADD20C,1.524000*%
%TD*%
%TA.AperFunction,SMDPad,CuDef*%
%ADD21RoundRect,0.152400X0.609600X-1.063600X0.609600X1.063600X-0.609600X1.063600X-0.609600X-1.063600X0*%
%TD*%
%TA.AperFunction,Conductor*%
%ADD22C,0.200000*%
%TD*%
%TA.AperFunction,Profile*%
%ADD23C,0.050000*%
%TD*%
G04 APERTURE END LIST*
D10*
D11*
X38511653Y-29257078D02*
X39511653Y-29257078D01*
X39511653Y-29257078D02*
X38511653Y-30757078D01*
X38511653Y-30757078D02*
X39511653Y-30757078D01*
X40725939Y-29757078D02*
X40725939Y-30757078D01*
X40083081Y-29757078D02*
X40083081Y-30542792D01*
X40083081Y-30542792D02*
X40154510Y-30685650D01*
X40154510Y-30685650D02*
X40297367Y-30757078D01*
X40297367Y-30757078D02*
X40511653Y-30757078D01*
X40511653Y-30757078D02*
X40654510Y-30685650D01*
X40654510Y-30685650D02*
X40725939Y-30614221D01*
X41440224Y-30757078D02*
X41440224Y-29757078D01*
X41440224Y-30042792D02*
X41511653Y-29899935D01*
X41511653Y-29899935D02*
X41583082Y-29828507D01*
X41583082Y-29828507D02*
X41725939Y-29757078D01*
X41725939Y-29757078D02*
X41868796Y-29757078D01*
X43011653Y-30757078D02*
X43011653Y-29971364D01*
X43011653Y-29971364D02*
X42940224Y-29828507D01*
X42940224Y-29828507D02*
X42797367Y-29757078D01*
X42797367Y-29757078D02*
X42511653Y-29757078D01*
X42511653Y-29757078D02*
X42368795Y-29828507D01*
X43011653Y-30685650D02*
X42868795Y-30757078D01*
X42868795Y-30757078D02*
X42511653Y-30757078D01*
X42511653Y-30757078D02*
X42368795Y-30685650D01*
X42368795Y-30685650D02*
X42297367Y-30542792D01*
X42297367Y-30542792D02*
X42297367Y-30399935D01*
X42297367Y-30399935D02*
X42368795Y-30257078D01*
X42368795Y-30257078D02*
X42511653Y-30185650D01*
X42511653Y-30185650D02*
X42868795Y-30185650D01*
X42868795Y-30185650D02*
X43011653Y-30114221D01*
X43797367Y-29257078D02*
X43654510Y-29542792D01*
X44368796Y-30685650D02*
X44511653Y-30757078D01*
X44511653Y-30757078D02*
X44797367Y-30757078D01*
X44797367Y-30757078D02*
X44940224Y-30685650D01*
X44940224Y-30685650D02*
X45011653Y-30542792D01*
X45011653Y-30542792D02*
X45011653Y-30471364D01*
X45011653Y-30471364D02*
X44940224Y-30328507D01*
X44940224Y-30328507D02*
X44797367Y-30257078D01*
X44797367Y-30257078D02*
X44583082Y-30257078D01*
X44583082Y-30257078D02*
X44440224Y-30185650D01*
X44440224Y-30185650D02*
X44368796Y-30042792D01*
X44368796Y-30042792D02*
X44368796Y-29971364D01*
X44368796Y-29971364D02*
X44440224Y-29828507D01*
X44440224Y-29828507D02*
X44583082Y-29757078D01*
X44583082Y-29757078D02*
X44797367Y-29757078D01*
X44797367Y-29757078D02*
X44940224Y-29828507D01*
X46797367Y-30757078D02*
X46797367Y-29257078D01*
X46797367Y-29971364D02*
X47654510Y-29971364D01*
X47654510Y-30757078D02*
X47654510Y-29257078D01*
X49011654Y-30757078D02*
X49011654Y-29971364D01*
X49011654Y-29971364D02*
X48940225Y-29828507D01*
X48940225Y-29828507D02*
X48797368Y-29757078D01*
X48797368Y-29757078D02*
X48511654Y-29757078D01*
X48511654Y-29757078D02*
X48368796Y-29828507D01*
X49011654Y-30685650D02*
X48868796Y-30757078D01*
X48868796Y-30757078D02*
X48511654Y-30757078D01*
X48511654Y-30757078D02*
X48368796Y-30685650D01*
X48368796Y-30685650D02*
X48297368Y-30542792D01*
X48297368Y-30542792D02*
X48297368Y-30399935D01*
X48297368Y-30399935D02*
X48368796Y-30257078D01*
X48368796Y-30257078D02*
X48511654Y-30185650D01*
X48511654Y-30185650D02*
X48868796Y-30185650D01*
X48868796Y-30185650D02*
X49011654Y-30114221D01*
X50368797Y-30685650D02*
X50225939Y-30757078D01*
X50225939Y-30757078D02*
X49940225Y-30757078D01*
X49940225Y-30757078D02*
X49797368Y-30685650D01*
X49797368Y-30685650D02*
X49725939Y-30614221D01*
X49725939Y-30614221D02*
X49654511Y-30471364D01*
X49654511Y-30471364D02*
X49654511Y-30042792D01*
X49654511Y-30042792D02*
X49725939Y-29899935D01*
X49725939Y-29899935D02*
X49797368Y-29828507D01*
X49797368Y-29828507D02*
X49940225Y-29757078D01*
X49940225Y-29757078D02*
X50225939Y-29757078D01*
X50225939Y-29757078D02*
X50368797Y-29828507D01*
X51011653Y-30757078D02*
X51011653Y-29257078D01*
X51154511Y-30185650D02*
X51583082Y-30757078D01*
X51583082Y-29757078D02*
X51011653Y-30328507D01*
X52225939Y-30757078D02*
X52225939Y-29257078D01*
X52225939Y-29257078D02*
X52797368Y-29257078D01*
X52797368Y-29257078D02*
X52940225Y-29328507D01*
X52940225Y-29328507D02*
X53011654Y-29399935D01*
X53011654Y-29399935D02*
X53083082Y-29542792D01*
X53083082Y-29542792D02*
X53083082Y-29757078D01*
X53083082Y-29757078D02*
X53011654Y-29899935D01*
X53011654Y-29899935D02*
X52940225Y-29971364D01*
X52940225Y-29971364D02*
X52797368Y-30042792D01*
X52797368Y-30042792D02*
X52225939Y-30042792D01*
X54368797Y-30757078D02*
X54368797Y-29971364D01*
X54368797Y-29971364D02*
X54297368Y-29828507D01*
X54297368Y-29828507D02*
X54154511Y-29757078D01*
X54154511Y-29757078D02*
X53868797Y-29757078D01*
X53868797Y-29757078D02*
X53725939Y-29828507D01*
X54368797Y-30685650D02*
X54225939Y-30757078D01*
X54225939Y-30757078D02*
X53868797Y-30757078D01*
X53868797Y-30757078D02*
X53725939Y-30685650D01*
X53725939Y-30685650D02*
X53654511Y-30542792D01*
X53654511Y-30542792D02*
X53654511Y-30399935D01*
X53654511Y-30399935D02*
X53725939Y-30257078D01*
X53725939Y-30257078D02*
X53868797Y-30185650D01*
X53868797Y-30185650D02*
X54225939Y-30185650D01*
X54225939Y-30185650D02*
X54368797Y-30114221D01*
X55725940Y-30757078D02*
X55725940Y-29257078D01*
X55725940Y-30685650D02*
X55583082Y-30757078D01*
X55583082Y-30757078D02*
X55297368Y-30757078D01*
X55297368Y-30757078D02*
X55154511Y-30685650D01*
X55154511Y-30685650D02*
X55083082Y-30614221D01*
X55083082Y-30614221D02*
X55011654Y-30471364D01*
X55011654Y-30471364D02*
X55011654Y-30042792D01*
X55011654Y-30042792D02*
X55083082Y-29899935D01*
X55083082Y-29899935D02*
X55154511Y-29828507D01*
X55154511Y-29828507D02*
X55297368Y-29757078D01*
X55297368Y-29757078D02*
X55583082Y-29757078D01*
X55583082Y-29757078D02*
X55725940Y-29828507D01*
D12*
%TO.P,SW1,1,1*%
%TO.N,GND*%
X71278750Y-52070000D03*
%TO.P,SW1,2,2*%
%TO.N,Net-(U1-GPIO26{slash}ADC0{slash}A0)*%
X64928750Y-54610000D03*
%TD*%
%TO.P,SW4,1,1*%
%TO.N,GND*%
X97472500Y-71120000D03*
%TO.P,SW4,2,2*%
%TO.N,Net-(U1-GPIO29{slash}ADC3{slash}A3)*%
X91122500Y-73660000D03*
%TD*%
D13*
%TO.P,D1,1,DOUT*%
%TO.N,Net-(D1-DOUT)*%
X57463750Y-72943750D03*
%TO.P,D1,2,VSS*%
%TO.N,GND*%
X57463750Y-74693750D03*
%TO.P,D1,3,DIN*%
%TO.N,Net-(D1-DIN)*%
X60963750Y-74693750D03*
%TO.P,D1,4,VDD*%
%TO.N,+5V*%
X60963750Y-72943750D03*
%TD*%
D12*
%TO.P,SW3,1,1*%
%TO.N,GND*%
X78422500Y-71120000D03*
%TO.P,SW3,2,2*%
%TO.N,Net-(U1-GPIO28{slash}ADC2{slash}A2)*%
X72072500Y-73660000D03*
%TD*%
D14*
%TO.P,J1,1,Pin_1*%
%TO.N,GND*%
X63976250Y-30797500D03*
D15*
%TO.P,J1,2,Pin_2*%
%TO.N,Net-(J1-Pin_2)*%
X63976250Y-33337500D03*
%TO.P,J1,3,Pin_3*%
%TO.N,Net-(J1-Pin_3)*%
X63976250Y-35877500D03*
%TO.P,J1,4,Pin_4*%
%TO.N,Net-(J1-Pin_4)*%
X63976250Y-38417500D03*
%TD*%
D13*
%TO.P,D2,1,DOUT*%
%TO.N,unconnected-(D2-DOUT-Pad1)*%
X57463750Y-80087500D03*
%TO.P,D2,2,VSS*%
%TO.N,GND*%
X57463750Y-81837500D03*
%TO.P,D2,3,DIN*%
%TO.N,Net-(D1-DOUT)*%
X60963750Y-81837500D03*
%TO.P,D2,4,VDD*%
%TO.N,+5V*%
X60963750Y-80087500D03*
%TD*%
D12*
%TO.P,SW2,1,1*%
%TO.N,GND*%
X90328750Y-52070000D03*
%TO.P,SW2,2,2*%
%TO.N,Net-(U1-GPIO27{slash}ADC1{slash}A1)*%
X83978750Y-54610000D03*
%TD*%
D16*
%TO.P,SW5,A,A*%
%TO.N,Net-(U1-GPIO2{slash}SCK)*%
X102095000Y-52268750D03*
D17*
%TO.P,SW5,B,B*%
%TO.N,Net-(U1-GPIO4{slash}MISO)*%
X102095000Y-57268750D03*
%TO.P,SW5,C,C*%
%TO.N,GND*%
X102095000Y-54768750D03*
D18*
%TO.P,SW5,MP*%
%TO.N,N/C*%
X109595000Y-49168750D03*
X109595000Y-60368750D03*
D17*
%TO.P,SW5,S1*%
X116595000Y-57268750D03*
%TO.P,SW5,S2*%
X116595000Y-52268750D03*
%TD*%
D19*
%TO.P,U1,1,GPIO26/ADC0/A0*%
%TO.N,Net-(U1-GPIO26{slash}ADC0{slash}A0)*%
X39687500Y-65605000D03*
D20*
X39687500Y-64770000D03*
D19*
%TO.P,U1,2,GPIO27/ADC1/A1*%
%TO.N,Net-(U1-GPIO27{slash}ADC1{slash}A1)*%
X42227500Y-65605000D03*
D20*
X42227500Y-64770000D03*
D19*
%TO.P,U1,3,GPIO28/ADC2/A2*%
%TO.N,Net-(U1-GPIO28{slash}ADC2{slash}A2)*%
X44767500Y-65605000D03*
D20*
X44767500Y-64770000D03*
D19*
%TO.P,U1,4,GPIO29/ADC3/A3*%
%TO.N,Net-(U1-GPIO29{slash}ADC3{slash}A3)*%
X47307500Y-65605000D03*
D20*
X47307500Y-64770000D03*
D19*
%TO.P,U1,5,GPIO6/SDA*%
%TO.N,Net-(J1-Pin_4)*%
X49847500Y-65605000D03*
D20*
X49847500Y-64770000D03*
D19*
%TO.P,U1,6,GPIO7/SCL*%
%TO.N,Net-(J1-Pin_3)*%
X52387500Y-65605000D03*
D20*
X52387500Y-64770000D03*
D19*
%TO.P,U1,7,GPIO0/TX*%
%TO.N,Net-(D1-DIN)*%
X54927500Y-65605000D03*
D20*
X54927500Y-64770000D03*
%TO.P,U1,8,GPIO1/RX*%
%TO.N,unconnected-(U1-GPIO1{slash}RX-Pad8)*%
X54927500Y-49530000D03*
D21*
X54927500Y-48695000D03*
D20*
%TO.P,U1,9,GPIO2/SCK*%
%TO.N,Net-(U1-GPIO2{slash}SCK)*%
X52387500Y-49530000D03*
D21*
X52387500Y-48695000D03*
D20*
%TO.P,U1,10,GPIO4/MISO*%
%TO.N,Net-(U1-GPIO4{slash}MISO)*%
X49847500Y-49530000D03*
D21*
X49847500Y-48695000D03*
D20*
%TO.P,U1,11,GPIO3/MOSI*%
%TO.N,unconnected-(U1-GPIO3{slash}MOSI-Pad11)*%
X47307500Y-49530000D03*
D21*
X47307500Y-48695000D03*
D20*
%TO.P,U1,12,3V3*%
%TO.N,Net-(J1-Pin_2)*%
X44767500Y-49530000D03*
D21*
X44767500Y-48695000D03*
D20*
%TO.P,U1,13,GND*%
%TO.N,GND*%
X42227500Y-49530000D03*
D21*
X42227500Y-48695000D03*
D20*
%TO.P,U1,14,VBUS*%
%TO.N,+5V*%
X39687500Y-49530000D03*
D21*
X39687500Y-48695000D03*
%TD*%
D22*
%TO.N,GND*%
X58189750Y-75419750D02*
X68331436Y-75419750D01*
X42227500Y-48695000D02*
X42227500Y-49530000D01*
X71278750Y-52070000D02*
X71278750Y-38100000D01*
X97472500Y-59391250D02*
X97472500Y-71120000D01*
X63976250Y-30797500D02*
X60125000Y-30797500D01*
X71278750Y-38100000D02*
X63976250Y-30797500D01*
X72631186Y-71120000D02*
X78422500Y-71120000D01*
X97472500Y-71120000D02*
X78422500Y-71120000D01*
X99396250Y-52070000D02*
X102095000Y-54768750D01*
X102095000Y-54768750D02*
X97472500Y-59391250D01*
X71278750Y-52070000D02*
X90328750Y-52070000D01*
X68331436Y-75419750D02*
X72631186Y-71120000D01*
X60125000Y-30797500D02*
X42227500Y-48695000D01*
X57463750Y-74693750D02*
X58189750Y-75419750D01*
X90328750Y-52070000D02*
X99396250Y-52070000D01*
%TO.N,Net-(D1-DIN)*%
X62064750Y-73592750D02*
X62064750Y-71907250D01*
X62064750Y-71907250D02*
X54927500Y-64770000D01*
X60963750Y-74693750D02*
X62064750Y-73592750D01*
%TO.N,Net-(D1-DOUT)*%
X56362750Y-74044750D02*
X57463750Y-72943750D01*
X60237750Y-82563500D02*
X56362750Y-82563500D01*
X60963750Y-81837500D02*
X60237750Y-82563500D01*
X56362750Y-82563500D02*
X56362750Y-74044750D01*
%TO.N,Net-(J1-Pin_4)*%
X53189126Y-67122000D02*
X51585874Y-67122000D01*
X56391500Y-46002250D02*
X56391500Y-61388690D01*
X53450500Y-66860626D02*
X53189126Y-67122000D01*
X49847500Y-65383626D02*
X49847500Y-64770000D01*
X56391500Y-61388690D02*
X53450500Y-64329690D01*
X51585874Y-67122000D02*
X49847500Y-65383626D01*
X53450500Y-64329690D02*
X53450500Y-66860626D01*
X63976250Y-38417500D02*
X56391500Y-46002250D01*
%TO.N,Net-(J1-Pin_3)*%
X63976250Y-35877500D02*
X55990500Y-43863250D01*
X55990500Y-61167000D02*
X52387500Y-64770000D01*
X55990500Y-43863250D02*
X55990500Y-61167000D01*
%TO.N,Net-(J1-Pin_2)*%
X59882370Y-33337500D02*
X44767500Y-48452370D01*
X44767500Y-48452370D02*
X44767500Y-49530000D01*
X63976250Y-33337500D02*
X59882370Y-33337500D01*
%TO.N,Net-(U1-GPIO26{slash}ADC0{slash}A0)*%
X53864500Y-50593000D02*
X39687500Y-64770000D01*
X64453010Y-34726500D02*
X63499490Y-34726500D01*
X66028749Y-53510001D02*
X66028749Y-36302239D01*
X64928750Y-54610000D02*
X66028749Y-53510001D01*
X66028749Y-36302239D02*
X64453010Y-34726500D01*
X63499490Y-34726500D02*
X53864500Y-44361490D01*
X53864500Y-44361490D02*
X53864500Y-50593000D01*
%TO.N,Net-(U1-GPIO28{slash}ADC2{slash}A2)*%
X44767500Y-72102450D02*
X44767500Y-64770000D01*
X56030550Y-83365500D02*
X44767500Y-72102450D01*
X72072500Y-73660000D02*
X71535350Y-73660000D01*
X61829850Y-83365500D02*
X56030550Y-83365500D01*
X71535350Y-73660000D02*
X61829850Y-83365500D01*
%TO.N,Net-(U1-GPIO29{slash}ADC3{slash}A3)*%
X43704500Y-71606550D02*
X43704500Y-64329690D01*
X46244500Y-63707000D02*
X47307500Y-64770000D01*
X91122500Y-73660000D02*
X75040970Y-73660000D01*
X64934470Y-83766500D02*
X55864450Y-83766500D01*
X75040970Y-73660000D02*
X64934470Y-83766500D01*
X43704500Y-64329690D02*
X44327190Y-63707000D01*
X44327190Y-63707000D02*
X46244500Y-63707000D01*
X55864450Y-83766500D02*
X43704500Y-71606550D01*
%TO.N,Net-(U1-GPIO4{slash}MISO)*%
X41164500Y-49970310D02*
X41787190Y-50593000D01*
X82074750Y-29646500D02*
X58957374Y-29646500D01*
X48784500Y-50593000D02*
X49847500Y-49530000D01*
X103396000Y-50967750D02*
X90507875Y-38079625D01*
X90507875Y-38079625D02*
X82074750Y-29646500D01*
X103396000Y-55967750D02*
X103396000Y-50967750D01*
X58957374Y-29646500D02*
X41164500Y-47439374D01*
X41164500Y-47439374D02*
X41164500Y-49970310D01*
X41787190Y-50593000D02*
X48784500Y-50593000D01*
X102095000Y-57268750D02*
X103396000Y-55967750D01*
%TO.N,+5V*%
X44161090Y-63306000D02*
X47346810Y-63306000D01*
X47346810Y-63306000D02*
X48370500Y-64329690D01*
X55961750Y-78581250D02*
X55961750Y-82729600D01*
X60237750Y-72217750D02*
X56362750Y-72217750D01*
X61663750Y-80787500D02*
X60963750Y-80087500D01*
X56196650Y-82964500D02*
X61663750Y-82964500D01*
X60963750Y-72943750D02*
X60237750Y-72217750D01*
X43303500Y-64163590D02*
X44161090Y-63306000D01*
X61663750Y-82964500D02*
X62064750Y-82563500D01*
X62064750Y-82563500D02*
X62064750Y-80787500D01*
X48370500Y-70990000D02*
X55961750Y-78581250D01*
X55961750Y-82729600D02*
X56196650Y-82964500D01*
X38624500Y-66860626D02*
X40820124Y-69056250D01*
X43303500Y-69056250D02*
X43303500Y-64163590D01*
X56362750Y-72217750D02*
X55961750Y-72618750D01*
X38624500Y-50593000D02*
X38624500Y-66860626D01*
X55961750Y-72618750D02*
X55961750Y-78581250D01*
X62064750Y-80787500D02*
X61663750Y-80787500D01*
X48370500Y-64329690D02*
X48370500Y-70990000D01*
X39687500Y-49530000D02*
X38624500Y-50593000D01*
X40820124Y-69056250D02*
X43303500Y-69056250D01*
%TD*%
%TA.AperFunction,Conductor*%
%TO.N,GND*%
G36*
X103059181Y-55556155D02*
G01*
X103073884Y-55583082D01*
X103090477Y-55608901D01*
X103091368Y-55615101D01*
X103092666Y-55617478D01*
X103095500Y-55643836D01*
X103095500Y-55646663D01*
X103077753Y-55707098D01*
X103092851Y-55735222D01*
X103095500Y-55760715D01*
X103095500Y-55791916D01*
X103075815Y-55858955D01*
X103059181Y-55879597D01*
X102769744Y-56169033D01*
X102708421Y-56202518D01*
X102638729Y-56197534D01*
X102625768Y-56191837D01*
X102555836Y-56156204D01*
X102494940Y-56136418D01*
X102437265Y-56096980D01*
X102410067Y-56032621D01*
X102421982Y-55963775D01*
X102469227Y-55912299D01*
X102494942Y-55900555D01*
X102555641Y-55880833D01*
X102723940Y-55795079D01*
X102851719Y-55702244D01*
X102348953Y-55199479D01*
X102402007Y-55168849D01*
X102495099Y-55075757D01*
X102525729Y-55022703D01*
X103059181Y-55556155D01*
G37*
%TD.AperFunction*%
%TA.AperFunction,Conductor*%
G36*
X103038539Y-53488935D02*
G01*
X103084294Y-53541739D01*
X103095500Y-53593250D01*
X103095500Y-53776795D01*
X103078078Y-53836126D01*
X103078505Y-53837271D01*
X103090477Y-53855900D01*
X103093628Y-53877818D01*
X103095184Y-53881989D01*
X103095500Y-53890835D01*
X103095500Y-53893662D01*
X103075815Y-53960701D01*
X103059181Y-53981343D01*
X102525728Y-54514795D01*
X102495099Y-54461743D01*
X102402007Y-54368651D01*
X102348953Y-54338020D01*
X102851717Y-53835255D01*
X102723933Y-53742416D01*
X102648018Y-53703735D01*
X102597222Y-53655760D01*
X102580427Y-53587939D01*
X102602965Y-53521804D01*
X102657680Y-53478353D01*
X102704313Y-53469250D01*
X102971500Y-53469250D01*
X103038539Y-53488935D01*
G37*
%TD.AperFunction*%
%TA.AperFunction,Conductor*%
G36*
X118505039Y-26713935D02*
G01*
X118550794Y-26766739D01*
X118562000Y-26818250D01*
X118562000Y-87481750D01*
X118542315Y-87548789D01*
X118489511Y-87594544D01*
X118438000Y-87605750D01*
X37212432Y-87605750D01*
X37145393Y-87586065D01*
X37099638Y-87533261D01*
X37088432Y-87481750D01*
X37088432Y-50553438D01*
X38324000Y-50553438D01*
X38324000Y-66900188D01*
X38337652Y-66951139D01*
X38344479Y-66976616D01*
X38344482Y-66976621D01*
X38370393Y-67021500D01*
X38384040Y-67045137D01*
X40579664Y-69240761D01*
X40635613Y-69296710D01*
X40635615Y-69296711D01*
X40635619Y-69296714D01*
X40704128Y-69336267D01*
X40704135Y-69336271D01*
X40780562Y-69356750D01*
X40780564Y-69356750D01*
X43280000Y-69356750D01*
X43347039Y-69376435D01*
X43392794Y-69429239D01*
X43404000Y-69480750D01*
X43404000Y-71646112D01*
X43417652Y-71697063D01*
X43424479Y-71722540D01*
X43424482Y-71722545D01*
X43464035Y-71791054D01*
X43464039Y-71791059D01*
X43464040Y-71791061D01*
X55623990Y-83951011D01*
X55679939Y-84006960D01*
X55679941Y-84006961D01*
X55679945Y-84006964D01*
X55748454Y-84046517D01*
X55748461Y-84046521D01*
X55824888Y-84067000D01*
X55824890Y-84067000D01*
X64974030Y-84067000D01*
X64974032Y-84067000D01*
X65050459Y-84046521D01*
X65118981Y-84006960D01*
X65174930Y-83951011D01*
X68265792Y-80860148D01*
X112999500Y-80860148D01*
X112999500Y-81064851D01*
X113031522Y-81267034D01*
X113094781Y-81461723D01*
X113187715Y-81644113D01*
X113308028Y-81809713D01*
X113452786Y-81954471D01*
X113607749Y-82067056D01*
X113618390Y-82074787D01*
X113696551Y-82114612D01*
X113800776Y-82167718D01*
X113800778Y-82167718D01*
X113800781Y-82167720D01*
X113879961Y-82193447D01*
X113995465Y-82230977D01*
X114073364Y-82243315D01*
X114197648Y-82263000D01*
X114197649Y-82263000D01*
X114402351Y-82263000D01*
X114402352Y-82263000D01*
X114604534Y-82230977D01*
X114799219Y-82167720D01*
X114981610Y-82074787D01*
X115074590Y-82007232D01*
X115147213Y-81954471D01*
X115147215Y-81954468D01*
X115147219Y-81954466D01*
X115291966Y-81809719D01*
X115291968Y-81809715D01*
X115291971Y-81809713D01*
X115344732Y-81737090D01*
X115412287Y-81644110D01*
X115505220Y-81461719D01*
X115568477Y-81267034D01*
X115600500Y-81064852D01*
X115600500Y-80860148D01*
X115568477Y-80657966D01*
X115505220Y-80463281D01*
X115505218Y-80463278D01*
X115505218Y-80463276D01*
X115454124Y-80363000D01*
X115412287Y-80280890D01*
X115404556Y-80270249D01*
X115291971Y-80115286D01*
X115147213Y-79970528D01*
X114981613Y-79850215D01*
X114981612Y-79850214D01*
X114981610Y-79850213D01*
X114924653Y-79821191D01*
X114799223Y-79757281D01*
X114604534Y-79694022D01*
X114429995Y-79666378D01*
X114402352Y-79662000D01*
X114197648Y-79662000D01*
X114173329Y-79665851D01*
X113995465Y-79694022D01*
X113800776Y-79757281D01*
X113618386Y-79850215D01*
X113452786Y-79970528D01*
X113308028Y-80115286D01*
X113187715Y-80280886D01*
X113094781Y-80463276D01*
X113031522Y-80657965D01*
X112999500Y-80860148D01*
X68265792Y-80860148D01*
X73458386Y-75667553D01*
X73519707Y-75634070D01*
X73589399Y-75639054D01*
X73645332Y-75680926D01*
X73669749Y-75746390D01*
X73669004Y-75771421D01*
X73632001Y-76052484D01*
X73632000Y-76052500D01*
X73632000Y-76347513D01*
X73664071Y-76591113D01*
X73670507Y-76639993D01*
X73744712Y-76916930D01*
X73746861Y-76924951D01*
X73746864Y-76924961D01*
X73859754Y-77197500D01*
X73859758Y-77197510D01*
X74007261Y-77452993D01*
X74186852Y-77687040D01*
X74186858Y-77687047D01*
X74395452Y-77895641D01*
X74395459Y-77895647D01*
X74629506Y-78075238D01*
X74884989Y-78222741D01*
X74884990Y-78222741D01*
X74884993Y-78222743D01*
X75157548Y-78335639D01*
X75442507Y-78411993D01*
X75734994Y-78450500D01*
X75735001Y-78450500D01*
X76029999Y-78450500D01*
X76030006Y-78450500D01*
X76322493Y-78411993D01*
X76607452Y-78335639D01*
X76880007Y-78222743D01*
X77135494Y-78075238D01*
X77369542Y-77895646D01*
X77578146Y-77687042D01*
X77757738Y-77452994D01*
X77905243Y-77197507D01*
X78018139Y-76924952D01*
X78094493Y-76639993D01*
X78133000Y-76347506D01*
X78133000Y-76113389D01*
X79862000Y-76113389D01*
X79862000Y-76286611D01*
X79889098Y-76457701D01*
X79942627Y-76622445D01*
X80021268Y-76776788D01*
X80123086Y-76916928D01*
X80245572Y-77039414D01*
X80385712Y-77141232D01*
X80540055Y-77219873D01*
X80704799Y-77273402D01*
X80875889Y-77300500D01*
X80875890Y-77300500D01*
X81049110Y-77300500D01*
X81049111Y-77300500D01*
X81220201Y-77273402D01*
X81384945Y-77219873D01*
X81539288Y-77141232D01*
X81679428Y-77039414D01*
X81801914Y-76916928D01*
X81903732Y-76776788D01*
X81982373Y-76622445D01*
X82035902Y-76457701D01*
X82063000Y-76286611D01*
X82063000Y-76113389D01*
X88752000Y-76113389D01*
X88752000Y-76286611D01*
X88779098Y-76457701D01*
X88832627Y-76622445D01*
X88911268Y-76776788D01*
X89013086Y-76916928D01*
X89135572Y-77039414D01*
X89275712Y-77141232D01*
X89430055Y-77219873D01*
X89594799Y-77273402D01*
X89765889Y-77300500D01*
X89765890Y-77300500D01*
X89939110Y-77300500D01*
X89939111Y-77300500D01*
X90110201Y-77273402D01*
X90274945Y-77219873D01*
X90429288Y-77141232D01*
X90569428Y-77039414D01*
X90691914Y-76916928D01*
X90793732Y-76776788D01*
X90872373Y-76622445D01*
X90925902Y-76457701D01*
X90953000Y-76286611D01*
X90953000Y-76113389D01*
X90943354Y-76052486D01*
X92682000Y-76052486D01*
X92682000Y-76347513D01*
X92714071Y-76591113D01*
X92720507Y-76639993D01*
X92794712Y-76916930D01*
X92796861Y-76924951D01*
X92796864Y-76924961D01*
X92909754Y-77197500D01*
X92909758Y-77197510D01*
X93057261Y-77452993D01*
X93236852Y-77687040D01*
X93236858Y-77687047D01*
X93445452Y-77895641D01*
X93445459Y-77895647D01*
X93679506Y-78075238D01*
X93934989Y-78222741D01*
X93934990Y-78222741D01*
X93934993Y-78222743D01*
X94207548Y-78335639D01*
X94492507Y-78411993D01*
X94784994Y-78450500D01*
X94785001Y-78450500D01*
X95079999Y-78450500D01*
X95080006Y-78450500D01*
X95372493Y-78411993D01*
X95657452Y-78335639D01*
X95930007Y-78222743D01*
X96185494Y-78075238D01*
X96419542Y-77895646D01*
X96628146Y-77687042D01*
X96807738Y-77452994D01*
X96955243Y-77197507D01*
X97068139Y-76924952D01*
X97144493Y-76639993D01*
X97183000Y-76347506D01*
X97183000Y-76113389D01*
X98912000Y-76113389D01*
X98912000Y-76286611D01*
X98939098Y-76457701D01*
X98992627Y-76622445D01*
X99071268Y-76776788D01*
X99173086Y-76916928D01*
X99295572Y-77039414D01*
X99435712Y-77141232D01*
X99590055Y-77219873D01*
X99754799Y-77273402D01*
X99925889Y-77300500D01*
X99925890Y-77300500D01*
X100099110Y-77300500D01*
X100099111Y-77300500D01*
X100270201Y-77273402D01*
X100434945Y-77219873D01*
X100589288Y-77141232D01*
X100729428Y-77039414D01*
X100851914Y-76916928D01*
X100953732Y-76776788D01*
X101032373Y-76622445D01*
X101085902Y-76457701D01*
X101113000Y-76286611D01*
X101113000Y-76113389D01*
X101085902Y-75942299D01*
X101032373Y-75777555D01*
X100953732Y-75623212D01*
X100851914Y-75483072D01*
X100729428Y-75360586D01*
X100589288Y-75258768D01*
X100468019Y-75196979D01*
X100434947Y-75180128D01*
X100434946Y-75180127D01*
X100434945Y-75180127D01*
X100270201Y-75126598D01*
X100270199Y-75126597D01*
X100270198Y-75126597D01*
X100138771Y-75105781D01*
X100099111Y-75099500D01*
X99925889Y-75099500D01*
X99886228Y-75105781D01*
X99754802Y-75126597D01*
X99590052Y-75180128D01*
X99435711Y-75258768D01*
X99369124Y-75307147D01*
X99295572Y-75360586D01*
X99295570Y-75360588D01*
X99295569Y-75360588D01*
X99173088Y-75483069D01*
X99173088Y-75483070D01*
X99173086Y-75483072D01*
X99129359Y-75543256D01*
X99071268Y-75623211D01*
X98992628Y-75777552D01*
X98939097Y-75942302D01*
X98913883Y-76101500D01*
X98912000Y-76113389D01*
X97183000Y-76113389D01*
X97183000Y-76052494D01*
X97144493Y-75760007D01*
X97068139Y-75475048D01*
X96955243Y-75202493D01*
X96951946Y-75196783D01*
X96807738Y-74947006D01*
X96628147Y-74712959D01*
X96628141Y-74712952D01*
X96419547Y-74504358D01*
X96419540Y-74504352D01*
X96185493Y-74324761D01*
X95930010Y-74177258D01*
X95930000Y-74177254D01*
X95657461Y-74064364D01*
X95657454Y-74064362D01*
X95657452Y-74064361D01*
X95372493Y-73988007D01*
X95313080Y-73980185D01*
X95080013Y-73949500D01*
X95080006Y-73949500D01*
X94784994Y-73949500D01*
X94784986Y-73949500D01*
X94506585Y-73986153D01*
X94492507Y-73988007D01*
X94264634Y-74049065D01*
X94207548Y-74064361D01*
X94207538Y-74064364D01*
X93934999Y-74177254D01*
X93934989Y-74177258D01*
X93679506Y-74324761D01*
X93445459Y-74504352D01*
X93445452Y-74504358D01*
X93236858Y-74712952D01*
X93236852Y-74712959D01*
X93057261Y-74947006D01*
X92909758Y-75202489D01*
X92909754Y-75202499D01*
X92796864Y-75475038D01*
X92796861Y-75475048D01*
X92754252Y-75634070D01*
X92720508Y-75760004D01*
X92720506Y-75760015D01*
X92682000Y-76052486D01*
X90943354Y-76052486D01*
X90925902Y-75942299D01*
X90872373Y-75777555D01*
X90793732Y-75623212D01*
X90691914Y-75483072D01*
X90569428Y-75360586D01*
X90429288Y-75258768D01*
X90308019Y-75196979D01*
X90274947Y-75180128D01*
X90274946Y-75180127D01*
X90274945Y-75180127D01*
X90110201Y-75126598D01*
X90110199Y-75126597D01*
X90110198Y-75126597D01*
X89978771Y-75105781D01*
X89939111Y-75099500D01*
X89765889Y-75099500D01*
X89726228Y-75105781D01*
X89594802Y-75126597D01*
X89430052Y-75180128D01*
X89275711Y-75258768D01*
X89209124Y-75307147D01*
X89135572Y-75360586D01*
X89135570Y-75360588D01*
X89135569Y-75360588D01*
X89013088Y-75483069D01*
X89013088Y-75483070D01*
X89013086Y-75483072D01*
X88969359Y-75543256D01*
X88911268Y-75623211D01*
X88832628Y-75777552D01*
X88779097Y-75942302D01*
X88753883Y-76101500D01*
X88752000Y-76113389D01*
X82063000Y-76113389D01*
X82035902Y-75942299D01*
X81982373Y-75777555D01*
X81903732Y-75623212D01*
X81801914Y-75483072D01*
X81679428Y-75360586D01*
X81539288Y-75258768D01*
X81418019Y-75196979D01*
X81384947Y-75180128D01*
X81384946Y-75180127D01*
X81384945Y-75180127D01*
X81220201Y-75126598D01*
X81220199Y-75126597D01*
X81220198Y-75126597D01*
X81088771Y-75105781D01*
X81049111Y-75099500D01*
X80875889Y-75099500D01*
X80836228Y-75105781D01*
X80704802Y-75126597D01*
X80540052Y-75180128D01*
X80385711Y-75258768D01*
X80319124Y-75307147D01*
X80245572Y-75360586D01*
X80245570Y-75360588D01*
X80245569Y-75360588D01*
X80123088Y-75483069D01*
X80123088Y-75483070D01*
X80123086Y-75483072D01*
X80079359Y-75543256D01*
X80021268Y-75623211D01*
X79942628Y-75777552D01*
X79889097Y-75942302D01*
X79863883Y-76101500D01*
X79862000Y-76113389D01*
X78133000Y-76113389D01*
X78133000Y-76052494D01*
X78094493Y-75760007D01*
X78018139Y-75475048D01*
X77905243Y-75202493D01*
X77901946Y-75196783D01*
X77757738Y-74947006D01*
X77578147Y-74712959D01*
X77578141Y-74712952D01*
X77369547Y-74504358D01*
X77369540Y-74504352D01*
X77135493Y-74324761D01*
X76905347Y-74191887D01*
X76857132Y-74141320D01*
X76843908Y-74072713D01*
X76869876Y-74007849D01*
X76926790Y-73967320D01*
X76967347Y-73960500D01*
X89762621Y-73960500D01*
X89829660Y-73980185D01*
X89875415Y-74032989D01*
X89880552Y-74046182D01*
X89917280Y-74159219D01*
X89940568Y-74204925D01*
X90010215Y-74341613D01*
X90130528Y-74507213D01*
X90275286Y-74651971D01*
X90430249Y-74764556D01*
X90440890Y-74772287D01*
X90532079Y-74818750D01*
X90623276Y-74865218D01*
X90623278Y-74865218D01*
X90623281Y-74865220D01*
X90692834Y-74887819D01*
X90817965Y-74928477D01*
X90919057Y-74944488D01*
X91020148Y-74960500D01*
X91020149Y-74960500D01*
X91224851Y-74960500D01*
X91224852Y-74960500D01*
X91427034Y-74928477D01*
X91621719Y-74865220D01*
X91804110Y-74772287D01*
X91897090Y-74704732D01*
X91969713Y-74651971D01*
X91969715Y-74651968D01*
X91969719Y-74651966D01*
X92114466Y-74507219D01*
X92114468Y-74507215D01*
X92114471Y-74507213D01*
X92167232Y-74434590D01*
X92234787Y-74341610D01*
X92327720Y-74159219D01*
X92390977Y-73964534D01*
X92423000Y-73762352D01*
X92423000Y-73557648D01*
X92405472Y-73446980D01*
X92390977Y-73355465D01*
X92327718Y-73160776D01*
X92294003Y-73094607D01*
X92234787Y-72978390D01*
X92227056Y-72967749D01*
X92114471Y-72812786D01*
X91969713Y-72668028D01*
X91804113Y-72547715D01*
X91804112Y-72547714D01*
X91804110Y-72547713D01*
X91715883Y-72502759D01*
X91621723Y-72454781D01*
X91427034Y-72391522D01*
X91252495Y-72363878D01*
X91224852Y-72359500D01*
X91020148Y-72359500D01*
X90995829Y-72363351D01*
X90817965Y-72391522D01*
X90623276Y-72454781D01*
X90440886Y-72547715D01*
X90275286Y-72668028D01*
X90130528Y-72812786D01*
X90010215Y-72978386D01*
X89917281Y-73160778D01*
X89880552Y-73273818D01*
X89841114Y-73331494D01*
X89776756Y-73358692D01*
X89762621Y-73359500D01*
X75001408Y-73359500D01*
X74924981Y-73379979D01*
X74910222Y-73388500D01*
X74856462Y-73419537D01*
X74856457Y-73419541D01*
X72110579Y-76165418D01*
X72049256Y-76198903D01*
X71979564Y-76193919D01*
X71923631Y-76152047D01*
X71900425Y-76097134D01*
X71900327Y-76096516D01*
X71875902Y-75942299D01*
X71822373Y-75777555D01*
X71743732Y-75623212D01*
X71641914Y-75483072D01*
X71519428Y-75360586D01*
X71379288Y-75258768D01*
X71258019Y-75196979D01*
X71224947Y-75180128D01*
X71224946Y-75180127D01*
X71224945Y-75180127D01*
X71060201Y-75126598D01*
X71060199Y-75126597D01*
X71060198Y-75126597D01*
X70928771Y-75105781D01*
X70889111Y-75099500D01*
X70820182Y-75099500D01*
X70753143Y-75079815D01*
X70707388Y-75027011D01*
X70697444Y-74957853D01*
X70726469Y-74894297D01*
X70732501Y-74887819D01*
X70755102Y-74865218D01*
X71009140Y-74611180D01*
X71070459Y-74577698D01*
X71140150Y-74582682D01*
X71184498Y-74611183D01*
X71225286Y-74651971D01*
X71380249Y-74764556D01*
X71390890Y-74772287D01*
X71482079Y-74818750D01*
X71573276Y-74865218D01*
X71573278Y-74865218D01*
X71573281Y-74865220D01*
X71642834Y-74887819D01*
X71767965Y-74928477D01*
X71869057Y-74944488D01*
X71970148Y-74960500D01*
X71970149Y-74960500D01*
X72174851Y-74960500D01*
X72174852Y-74960500D01*
X72377034Y-74928477D01*
X72571719Y-74865220D01*
X72754110Y-74772287D01*
X72847090Y-74704732D01*
X72919713Y-74651971D01*
X72919715Y-74651968D01*
X72919719Y-74651966D01*
X73064466Y-74507219D01*
X73064468Y-74507215D01*
X73064471Y-74507213D01*
X73117232Y-74434590D01*
X73184787Y-74341610D01*
X73277720Y-74159219D01*
X73340977Y-73964534D01*
X73373000Y-73762352D01*
X73373000Y-73557648D01*
X73355472Y-73446980D01*
X73340977Y-73355465D01*
X73277718Y-73160776D01*
X73244003Y-73094607D01*
X73184787Y-72978390D01*
X73177056Y-72967749D01*
X73064471Y-72812786D01*
X72919713Y-72668028D01*
X72754113Y-72547715D01*
X72754112Y-72547714D01*
X72754110Y-72547713D01*
X72665883Y-72502759D01*
X72571723Y-72454781D01*
X72377034Y-72391522D01*
X72202495Y-72363878D01*
X72174852Y-72359500D01*
X71970148Y-72359500D01*
X71945829Y-72363351D01*
X71767965Y-72391522D01*
X71573276Y-72454781D01*
X71390886Y-72547715D01*
X71225286Y-72668028D01*
X71080528Y-72812786D01*
X70960215Y-72978386D01*
X70867281Y-73160776D01*
X70804022Y-73355465D01*
X70772000Y-73557648D01*
X70772000Y-73762352D01*
X70771999Y-73762352D01*
X70794387Y-73903704D01*
X70785432Y-73972997D01*
X70759595Y-74010782D01*
X62576931Y-82193447D01*
X62515608Y-82226932D01*
X62445916Y-82221948D01*
X62389983Y-82180076D01*
X62365566Y-82114612D01*
X62365250Y-82105766D01*
X62365250Y-80747939D01*
X62344770Y-80671509D01*
X62344767Y-80671504D01*
X62305214Y-80602995D01*
X62305208Y-80602987D01*
X62249262Y-80547041D01*
X62249254Y-80547035D01*
X62180745Y-80507482D01*
X62180740Y-80507479D01*
X62155263Y-80500652D01*
X62104312Y-80487000D01*
X62104310Y-80487000D01*
X62088250Y-80487000D01*
X62021211Y-80467315D01*
X61975456Y-80414511D01*
X61964250Y-80363000D01*
X61964250Y-79642749D01*
X61964249Y-79642747D01*
X61952618Y-79584270D01*
X61952617Y-79584269D01*
X61908302Y-79517947D01*
X61841980Y-79473632D01*
X61841979Y-79473631D01*
X61783502Y-79462000D01*
X61783498Y-79462000D01*
X60144002Y-79462000D01*
X60143997Y-79462000D01*
X60085520Y-79473631D01*
X60085519Y-79473632D01*
X60019197Y-79517947D01*
X59974882Y-79584269D01*
X59974881Y-79584270D01*
X59963250Y-79642747D01*
X59963250Y-80532252D01*
X59974881Y-80590729D01*
X59974882Y-80590730D01*
X60019197Y-80657052D01*
X60085519Y-80701367D01*
X60085520Y-80701368D01*
X60143997Y-80712999D01*
X60144000Y-80713000D01*
X60144002Y-80713000D01*
X61112917Y-80713000D01*
X61179956Y-80732685D01*
X61200598Y-80749319D01*
X61451598Y-81000319D01*
X61485083Y-81061642D01*
X61480099Y-81131334D01*
X61438227Y-81187267D01*
X61372763Y-81211684D01*
X61363917Y-81212000D01*
X60143997Y-81212000D01*
X60085520Y-81223631D01*
X60085519Y-81223632D01*
X60019197Y-81267947D01*
X59974882Y-81334269D01*
X59974881Y-81334270D01*
X59963250Y-81392747D01*
X59963250Y-82139000D01*
X59943565Y-82206039D01*
X59890761Y-82251794D01*
X59839250Y-82263000D01*
X58587750Y-82263000D01*
X58520711Y-82243315D01*
X58474956Y-82190511D01*
X58463750Y-82139000D01*
X58463750Y-81962500D01*
X57587750Y-81962500D01*
X57579064Y-81959949D01*
X57570103Y-81961238D01*
X57546062Y-81950259D01*
X57520711Y-81942815D01*
X57514783Y-81935974D01*
X57506547Y-81932213D01*
X57492257Y-81909978D01*
X57474956Y-81890011D01*
X57472668Y-81879496D01*
X57468773Y-81873435D01*
X57463750Y-81838500D01*
X57463750Y-81837500D01*
X57462750Y-81837500D01*
X57395711Y-81817815D01*
X57349956Y-81765011D01*
X57338750Y-81713500D01*
X57338750Y-81712500D01*
X57588750Y-81712500D01*
X58463750Y-81712500D01*
X58463750Y-81392801D01*
X58463749Y-81392797D01*
X58452147Y-81334466D01*
X58452146Y-81334465D01*
X58407941Y-81268308D01*
X58341784Y-81224103D01*
X58341783Y-81224102D01*
X58283452Y-81212500D01*
X57588750Y-81212500D01*
X57588750Y-81712500D01*
X57338750Y-81712500D01*
X57338750Y-81212500D01*
X56787250Y-81212500D01*
X56720211Y-81192815D01*
X56674456Y-81140011D01*
X56663250Y-81088500D01*
X56663250Y-80837000D01*
X56682935Y-80769961D01*
X56735739Y-80724206D01*
X56787250Y-80713000D01*
X58283500Y-80713000D01*
X58283501Y-80712999D01*
X58298318Y-80710052D01*
X58341979Y-80701368D01*
X58341979Y-80701367D01*
X58341981Y-80701367D01*
X58408302Y-80657052D01*
X58452617Y-80590731D01*
X58452617Y-80590729D01*
X58452618Y-80590729D01*
X58464249Y-80532252D01*
X58464250Y-80532250D01*
X58464250Y-79642749D01*
X58464249Y-79642747D01*
X58452618Y-79584270D01*
X58452617Y-79584269D01*
X58408302Y-79517947D01*
X58341980Y-79473632D01*
X58341979Y-79473631D01*
X58283502Y-79462000D01*
X58283498Y-79462000D01*
X56787250Y-79462000D01*
X56720211Y-79442315D01*
X56674456Y-79389511D01*
X56663250Y-79338000D01*
X56663250Y-75442750D01*
X56682935Y-75375711D01*
X56735739Y-75329956D01*
X56787250Y-75318750D01*
X57338750Y-75318750D01*
X57588750Y-75318750D01*
X58283449Y-75318750D01*
X58283452Y-75318749D01*
X58341783Y-75307147D01*
X58341784Y-75307146D01*
X58407941Y-75262941D01*
X58452146Y-75196784D01*
X58452147Y-75196783D01*
X58463749Y-75138452D01*
X58463750Y-75138449D01*
X58463750Y-74818750D01*
X57588750Y-74818750D01*
X57588750Y-75318750D01*
X57338750Y-75318750D01*
X57338750Y-74568750D01*
X57588750Y-74568750D01*
X58463750Y-74568750D01*
X58463750Y-74249051D01*
X58463749Y-74249047D01*
X58452147Y-74190716D01*
X58452146Y-74190715D01*
X58407941Y-74124558D01*
X58341784Y-74080353D01*
X58341783Y-74080352D01*
X58283452Y-74068750D01*
X57588750Y-74068750D01*
X57588750Y-74568750D01*
X57338750Y-74568750D01*
X57338750Y-74068750D01*
X57063083Y-74068750D01*
X56996044Y-74049065D01*
X56950289Y-73996261D01*
X56940345Y-73927103D01*
X56969370Y-73863547D01*
X56975402Y-73857069D01*
X57226902Y-73605569D01*
X57288225Y-73572084D01*
X57314583Y-73569250D01*
X58283500Y-73569250D01*
X58283501Y-73569249D01*
X58298318Y-73566302D01*
X58341979Y-73557618D01*
X58341979Y-73557617D01*
X58341981Y-73557617D01*
X58408302Y-73513302D01*
X58452617Y-73446981D01*
X58452617Y-73446979D01*
X58452618Y-73446979D01*
X58464250Y-73388500D01*
X58464250Y-72642250D01*
X58483935Y-72575211D01*
X58536739Y-72529456D01*
X58588250Y-72518250D01*
X59839250Y-72518250D01*
X59906289Y-72537935D01*
X59952044Y-72590739D01*
X59963250Y-72642250D01*
X59963250Y-73388500D01*
X59974881Y-73446979D01*
X59974882Y-73446980D01*
X60019197Y-73513302D01*
X60085519Y-73557617D01*
X60085520Y-73557618D01*
X60143997Y-73569249D01*
X60144000Y-73569250D01*
X60144002Y-73569250D01*
X61363917Y-73569250D01*
X61430956Y-73588935D01*
X61476711Y-73641739D01*
X61486655Y-73710897D01*
X61457630Y-73774453D01*
X61451598Y-73780931D01*
X61200598Y-74031931D01*
X61139275Y-74065416D01*
X61112917Y-74068250D01*
X60143997Y-74068250D01*
X60085520Y-74079881D01*
X60085519Y-74079882D01*
X60019197Y-74124197D01*
X59974882Y-74190519D01*
X59974881Y-74190520D01*
X59963250Y-74248997D01*
X59963250Y-75138502D01*
X59974881Y-75196979D01*
X59974882Y-75196980D01*
X60019197Y-75263302D01*
X60085519Y-75307617D01*
X60085520Y-75307618D01*
X60143997Y-75319249D01*
X60144000Y-75319250D01*
X60144002Y-75319250D01*
X61783500Y-75319250D01*
X61783501Y-75319249D01*
X61798318Y-75316302D01*
X61841979Y-75307618D01*
X61841979Y-75307617D01*
X61841981Y-75307617D01*
X61908302Y-75263302D01*
X61952617Y-75196981D01*
X61952617Y-75196979D01*
X61952618Y-75196979D01*
X61964249Y-75138502D01*
X61964250Y-75138500D01*
X61964250Y-74249000D01*
X61960504Y-74230173D01*
X61955482Y-74204923D01*
X61961708Y-74135333D01*
X61989413Y-74093056D01*
X62305210Y-73777261D01*
X62324269Y-73744250D01*
X62344771Y-73708739D01*
X62365250Y-73632312D01*
X62365250Y-71867688D01*
X62353123Y-71822429D01*
X62344772Y-71791262D01*
X62305210Y-71722739D01*
X61600153Y-71017682D01*
X77122500Y-71017682D01*
X77122500Y-71222317D01*
X77154509Y-71424417D01*
X77217744Y-71619031D01*
X77310640Y-71801349D01*
X77417413Y-71948308D01*
X77417414Y-71948309D01*
X77810973Y-71554749D01*
X77839937Y-71598097D01*
X77944403Y-71702563D01*
X77987749Y-71731525D01*
X77594189Y-72125085D01*
X77741150Y-72231859D01*
X77923468Y-72324755D01*
X78118082Y-72387990D01*
X78320183Y-72420000D01*
X78524817Y-72420000D01*
X78726917Y-72387990D01*
X78921531Y-72324755D01*
X79103849Y-72231859D01*
X79250808Y-72125085D01*
X79250809Y-72125084D01*
X78857250Y-71731525D01*
X78900597Y-71702563D01*
X79005063Y-71598097D01*
X79034026Y-71554750D01*
X79427584Y-71948309D01*
X79427585Y-71948308D01*
X79534359Y-71801349D01*
X79627255Y-71619031D01*
X79690490Y-71424417D01*
X79722500Y-71222317D01*
X79722500Y-71017682D01*
X96172500Y-71017682D01*
X96172500Y-71222317D01*
X96204509Y-71424417D01*
X96267744Y-71619031D01*
X96360640Y-71801349D01*
X96467413Y-71948308D01*
X96467414Y-71948309D01*
X96860973Y-71554749D01*
X96889937Y-71598097D01*
X96994403Y-71702563D01*
X97037749Y-71731525D01*
X96644189Y-72125085D01*
X96791150Y-72231859D01*
X96973468Y-72324755D01*
X97168082Y-72387990D01*
X97370183Y-72420000D01*
X97574817Y-72420000D01*
X97776917Y-72387990D01*
X97971531Y-72324755D01*
X98153849Y-72231859D01*
X98300808Y-72125085D01*
X98300809Y-72125084D01*
X97907250Y-71731525D01*
X97950597Y-71702563D01*
X98055063Y-71598097D01*
X98084026Y-71554750D01*
X98477584Y-71948309D01*
X98477585Y-71948308D01*
X98584359Y-71801349D01*
X98677255Y-71619031D01*
X98740490Y-71424417D01*
X98772500Y-71222317D01*
X98772500Y-71017682D01*
X98740490Y-70815582D01*
X98677255Y-70620968D01*
X98584359Y-70438650D01*
X98477585Y-70291690D01*
X98477585Y-70291689D01*
X98084025Y-70685248D01*
X98055063Y-70641903D01*
X97950597Y-70537437D01*
X97907249Y-70508473D01*
X98300809Y-70114914D01*
X98300808Y-70114913D01*
X98153849Y-70008140D01*
X97971531Y-69915244D01*
X97776917Y-69852009D01*
X97574817Y-69820000D01*
X97370183Y-69820000D01*
X97168082Y-69852009D01*
X96973468Y-69915244D01*
X96791149Y-70008141D01*
X96791140Y-70008147D01*
X96644190Y-70114912D01*
X96644189Y-70114913D01*
X97037750Y-70508473D01*
X96994403Y-70537437D01*
X96889937Y-70641903D01*
X96860973Y-70685249D01*
X96467413Y-70291689D01*
X96467412Y-70291690D01*
X96360647Y-70438640D01*
X96360641Y-70438649D01*
X96267744Y-70620968D01*
X96204509Y-70815582D01*
X96172500Y-71017682D01*
X79722500Y-71017682D01*
X79690490Y-70815582D01*
X79627255Y-70620968D01*
X79534359Y-70438650D01*
X79427585Y-70291690D01*
X79427585Y-70291689D01*
X79034025Y-70685248D01*
X79005063Y-70641903D01*
X78900597Y-70537437D01*
X78857249Y-70508473D01*
X79250809Y-70114914D01*
X79250808Y-70114913D01*
X79103849Y-70008140D01*
X78921531Y-69915244D01*
X78726917Y-69852009D01*
X78524817Y-69820000D01*
X78320183Y-69820000D01*
X78118082Y-69852009D01*
X77923468Y-69915244D01*
X77741149Y-70008141D01*
X77741140Y-70008147D01*
X77594190Y-70114912D01*
X77594189Y-70114913D01*
X77987750Y-70508473D01*
X77944403Y-70537437D01*
X77839937Y-70641903D01*
X77810973Y-70685249D01*
X77417413Y-70291689D01*
X77417412Y-70291690D01*
X77310647Y-70438640D01*
X77310641Y-70438649D01*
X77217744Y-70620968D01*
X77154509Y-70815582D01*
X77122500Y-71017682D01*
X61600153Y-71017682D01*
X55926319Y-65343848D01*
X55892834Y-65282525D01*
X55890000Y-65256167D01*
X55890000Y-64507911D01*
X55890000Y-64507906D01*
X55880006Y-64439312D01*
X55828279Y-64333502D01*
X55744998Y-64250221D01*
X55744996Y-64250220D01*
X55737734Y-64242958D01*
X55738574Y-64242117D01*
X55718606Y-64221520D01*
X55713381Y-64213701D01*
X55675122Y-64156442D01*
X55675119Y-64156438D01*
X55541058Y-64022377D01*
X55383412Y-63917042D01*
X55208251Y-63844488D01*
X55208243Y-63844486D01*
X55022302Y-63807500D01*
X55022298Y-63807500D01*
X54832702Y-63807500D01*
X54806439Y-63812724D01*
X54690556Y-63835774D01*
X54620965Y-63829546D01*
X54565788Y-63786682D01*
X54542544Y-63720792D01*
X54558612Y-63652795D01*
X54578681Y-63626479D01*
X56631960Y-61573201D01*
X56640957Y-61557617D01*
X56671521Y-61504679D01*
X56692000Y-61428252D01*
X56692000Y-57063389D01*
X62558250Y-57063389D01*
X62558250Y-57236610D01*
X62578304Y-57363231D01*
X62585348Y-57407701D01*
X62638877Y-57572445D01*
X62717518Y-57726788D01*
X62819336Y-57866928D01*
X62941822Y-57989414D01*
X63081962Y-58091232D01*
X63236305Y-58169873D01*
X63401049Y-58223402D01*
X63572139Y-58250500D01*
X63572140Y-58250500D01*
X63745360Y-58250500D01*
X63745361Y-58250500D01*
X63916451Y-58223402D01*
X64081195Y-58169873D01*
X64235538Y-58091232D01*
X64375678Y-57989414D01*
X64498164Y-57866928D01*
X64599982Y-57726788D01*
X64678623Y-57572445D01*
X64732152Y-57407701D01*
X64759250Y-57236611D01*
X64759250Y-57063389D01*
X64749604Y-57002486D01*
X66488250Y-57002486D01*
X66488250Y-57297513D01*
X66520321Y-57541113D01*
X66526757Y-57589993D01*
X66600962Y-57866930D01*
X66603111Y-57874951D01*
X66603114Y-57874961D01*
X66716004Y-58147500D01*
X66716008Y-58147510D01*
X66863511Y-58402993D01*
X67043102Y-58637040D01*
X67043108Y-58637047D01*
X67251702Y-58845641D01*
X67251709Y-58845647D01*
X67485756Y-59025238D01*
X67741239Y-59172741D01*
X67741240Y-59172741D01*
X67741243Y-59172743D01*
X68013798Y-59285639D01*
X68298757Y-59361993D01*
X68591244Y-59400500D01*
X68591251Y-59400500D01*
X68886249Y-59400500D01*
X68886256Y-59400500D01*
X69178743Y-59361993D01*
X69463702Y-59285639D01*
X69736257Y-59172743D01*
X69991744Y-59025238D01*
X70225792Y-58845646D01*
X70434396Y-58637042D01*
X70613988Y-58402994D01*
X70761493Y-58147507D01*
X70874389Y-57874952D01*
X70950743Y-57589993D01*
X70989250Y-57297506D01*
X70989250Y-57063389D01*
X72718250Y-57063389D01*
X72718250Y-57236610D01*
X72738304Y-57363231D01*
X72745348Y-57407701D01*
X72798877Y-57572445D01*
X72877518Y-57726788D01*
X72979336Y-57866928D01*
X73101822Y-57989414D01*
X73241962Y-58091232D01*
X73396305Y-58169873D01*
X73561049Y-58223402D01*
X73732139Y-58250500D01*
X73732140Y-58250500D01*
X73905360Y-58250500D01*
X73905361Y-58250500D01*
X74076451Y-58223402D01*
X74241195Y-58169873D01*
X74395538Y-58091232D01*
X74535678Y-57989414D01*
X74658164Y-57866928D01*
X74759982Y-57726788D01*
X74838623Y-57572445D01*
X74892152Y-57407701D01*
X74919250Y-57236611D01*
X74919250Y-57063389D01*
X81608250Y-57063389D01*
X81608250Y-57236610D01*
X81628304Y-57363231D01*
X81635348Y-57407701D01*
X81688877Y-57572445D01*
X81767518Y-57726788D01*
X81869336Y-57866928D01*
X81991822Y-57989414D01*
X82131962Y-58091232D01*
X82286305Y-58169873D01*
X82451049Y-58223402D01*
X82622139Y-58250500D01*
X82622140Y-58250500D01*
X82795360Y-58250500D01*
X82795361Y-58250500D01*
X82966451Y-58223402D01*
X83131195Y-58169873D01*
X83285538Y-58091232D01*
X83425678Y-57989414D01*
X83548164Y-57866928D01*
X83649982Y-57726788D01*
X83728623Y-57572445D01*
X83782152Y-57407701D01*
X83809250Y-57236611D01*
X83809250Y-57063389D01*
X83799604Y-57002486D01*
X85538250Y-57002486D01*
X85538250Y-57297513D01*
X85570321Y-57541113D01*
X85576757Y-57589993D01*
X85650962Y-57866930D01*
X85653111Y-57874951D01*
X85653114Y-57874961D01*
X85766004Y-58147500D01*
X85766008Y-58147510D01*
X85913511Y-58402993D01*
X86093102Y-58637040D01*
X86093108Y-58637047D01*
X86301702Y-58845641D01*
X86301709Y-58845647D01*
X86535756Y-59025238D01*
X86791239Y-59172741D01*
X86791240Y-59172741D01*
X86791243Y-59172743D01*
X87063798Y-59285639D01*
X87348757Y-59361993D01*
X87641244Y-59400500D01*
X87641251Y-59400500D01*
X87936249Y-59400500D01*
X87936256Y-59400500D01*
X88228743Y-59361993D01*
X88277245Y-59348997D01*
X107794500Y-59348997D01*
X107794500Y-61388502D01*
X107806131Y-61446979D01*
X107806132Y-61446980D01*
X107850447Y-61513302D01*
X107916769Y-61557617D01*
X107916770Y-61557618D01*
X107975247Y-61569249D01*
X107975250Y-61569250D01*
X107975252Y-61569250D01*
X111214750Y-61569250D01*
X111214751Y-61569249D01*
X111229568Y-61566302D01*
X111273229Y-61557618D01*
X111273229Y-61557617D01*
X111273231Y-61557617D01*
X111339552Y-61513302D01*
X111383867Y-61446981D01*
X111383867Y-61446979D01*
X111383868Y-61446979D01*
X111395499Y-61388502D01*
X111395500Y-61388500D01*
X111395500Y-59348999D01*
X111395499Y-59348997D01*
X111383868Y-59290520D01*
X111383867Y-59290519D01*
X111339552Y-59224197D01*
X111273230Y-59179882D01*
X111273229Y-59179881D01*
X111214752Y-59168250D01*
X111214748Y-59168250D01*
X107975252Y-59168250D01*
X107975247Y-59168250D01*
X107916770Y-59179881D01*
X107916769Y-59179882D01*
X107850447Y-59224197D01*
X107806132Y-59290519D01*
X107806131Y-59290520D01*
X107794500Y-59348997D01*
X88277245Y-59348997D01*
X88513702Y-59285639D01*
X88579092Y-59258553D01*
X88652013Y-59228349D01*
X88685874Y-59214322D01*
X88786257Y-59172743D01*
X89041744Y-59025238D01*
X89275792Y-58845646D01*
X89484396Y-58637042D01*
X89663988Y-58402994D01*
X89811493Y-58147507D01*
X89924389Y-57874952D01*
X90000743Y-57589993D01*
X90039250Y-57297506D01*
X90039250Y-57063389D01*
X91768250Y-57063389D01*
X91768250Y-57236610D01*
X91788304Y-57363231D01*
X91795348Y-57407701D01*
X91848877Y-57572445D01*
X91927518Y-57726788D01*
X92029336Y-57866928D01*
X92151822Y-57989414D01*
X92291962Y-58091232D01*
X92446305Y-58169873D01*
X92611049Y-58223402D01*
X92782139Y-58250500D01*
X92782140Y-58250500D01*
X92955360Y-58250500D01*
X92955361Y-58250500D01*
X93126451Y-58223402D01*
X93291195Y-58169873D01*
X93445538Y-58091232D01*
X93585678Y-57989414D01*
X93708164Y-57866928D01*
X93809982Y-57726788D01*
X93888623Y-57572445D01*
X93942152Y-57407701D01*
X93969250Y-57236611D01*
X93969250Y-57063389D01*
X93942152Y-56892299D01*
X93888623Y-56727555D01*
X93809982Y-56573212D01*
X93708164Y-56433072D01*
X93585678Y-56310586D01*
X93445538Y-56208768D01*
X93342374Y-56156204D01*
X93291197Y-56130128D01*
X93291196Y-56130127D01*
X93291195Y-56130127D01*
X93126451Y-56076598D01*
X93126449Y-56076597D01*
X93126448Y-56076597D01*
X92995021Y-56055781D01*
X92955361Y-56049500D01*
X92782139Y-56049500D01*
X92742478Y-56055781D01*
X92611052Y-56076597D01*
X92611049Y-56076598D01*
X92463088Y-56124674D01*
X92446302Y-56130128D01*
X92291961Y-56208768D01*
X92258970Y-56232738D01*
X92151822Y-56310586D01*
X92151820Y-56310588D01*
X92151819Y-56310588D01*
X92029338Y-56433069D01*
X92029338Y-56433070D01*
X92029336Y-56433072D01*
X91990392Y-56486674D01*
X91927518Y-56573211D01*
X91848878Y-56727552D01*
X91795347Y-56892302D01*
X91768250Y-57063389D01*
X90039250Y-57063389D01*
X90039250Y-57002494D01*
X90000743Y-56710007D01*
X89924389Y-56425048D01*
X89811493Y-56152493D01*
X89779921Y-56097809D01*
X89663988Y-55897006D01*
X89484397Y-55662959D01*
X89484391Y-55662952D01*
X89275797Y-55454358D01*
X89275790Y-55454352D01*
X89041743Y-55274761D01*
X88786260Y-55127258D01*
X88786250Y-55127254D01*
X88513711Y-55014364D01*
X88513704Y-55014362D01*
X88513702Y-55014361D01*
X88228743Y-54938007D01*
X88179863Y-54931571D01*
X87936263Y-54899500D01*
X87936256Y-54899500D01*
X87641244Y-54899500D01*
X87641236Y-54899500D01*
X87362835Y-54936153D01*
X87348757Y-54938007D01*
X87063798Y-55014361D01*
X87063788Y-55014364D01*
X86791249Y-55127254D01*
X86791239Y-55127258D01*
X86535756Y-55274761D01*
X86301709Y-55454352D01*
X86301702Y-55454358D01*
X86093108Y-55662952D01*
X86093102Y-55662959D01*
X85913511Y-55897006D01*
X85766008Y-56152489D01*
X85766004Y-56152499D01*
X85653114Y-56425038D01*
X85653111Y-56425048D01*
X85587662Y-56669311D01*
X85576758Y-56710004D01*
X85576756Y-56710015D01*
X85538250Y-57002486D01*
X83799604Y-57002486D01*
X83782152Y-56892299D01*
X83728623Y-56727555D01*
X83649982Y-56573212D01*
X83548164Y-56433072D01*
X83425678Y-56310586D01*
X83285538Y-56208768D01*
X83182374Y-56156204D01*
X83131197Y-56130128D01*
X83131196Y-56130127D01*
X83131195Y-56130127D01*
X82966451Y-56076598D01*
X82966449Y-56076597D01*
X82966448Y-56076597D01*
X82835021Y-56055781D01*
X82795361Y-56049500D01*
X82622139Y-56049500D01*
X82582478Y-56055781D01*
X82451052Y-56076597D01*
X82451049Y-56076598D01*
X82303088Y-56124674D01*
X82286302Y-56130128D01*
X82131961Y-56208768D01*
X82098970Y-56232738D01*
X81991822Y-56310586D01*
X81991820Y-56310588D01*
X81991819Y-56310588D01*
X81869338Y-56433069D01*
X81869338Y-56433070D01*
X81869336Y-56433072D01*
X81830392Y-56486674D01*
X81767518Y-56573211D01*
X81688878Y-56727552D01*
X81635347Y-56892302D01*
X81608250Y-57063389D01*
X74919250Y-57063389D01*
X74892152Y-56892299D01*
X74838623Y-56727555D01*
X74759982Y-56573212D01*
X74658164Y-56433072D01*
X74535678Y-56310586D01*
X74395538Y-56208768D01*
X74292374Y-56156204D01*
X74241197Y-56130128D01*
X74241196Y-56130127D01*
X74241195Y-56130127D01*
X74076451Y-56076598D01*
X74076449Y-56076597D01*
X74076448Y-56076597D01*
X73945021Y-56055781D01*
X73905361Y-56049500D01*
X73732139Y-56049500D01*
X73692478Y-56055781D01*
X73561052Y-56076597D01*
X73561049Y-56076598D01*
X73413088Y-56124674D01*
X73396302Y-56130128D01*
X73241961Y-56208768D01*
X73208970Y-56232738D01*
X73101822Y-56310586D01*
X73101820Y-56310588D01*
X73101819Y-56310588D01*
X72979338Y-56433069D01*
X72979338Y-56433070D01*
X72979336Y-56433072D01*
X72940392Y-56486674D01*
X72877518Y-56573211D01*
X72798878Y-56727552D01*
X72745347Y-56892302D01*
X72718250Y-57063389D01*
X70989250Y-57063389D01*
X70989250Y-57002494D01*
X70950743Y-56710007D01*
X70874389Y-56425048D01*
X70761493Y-56152493D01*
X70729921Y-56097809D01*
X70613988Y-55897006D01*
X70434397Y-55662959D01*
X70434391Y-55662952D01*
X70225797Y-55454358D01*
X70225790Y-55454352D01*
X69991743Y-55274761D01*
X69736260Y-55127258D01*
X69736250Y-55127254D01*
X69463711Y-55014364D01*
X69463704Y-55014362D01*
X69463702Y-55014361D01*
X69178743Y-54938007D01*
X69129863Y-54931571D01*
X68886263Y-54899500D01*
X68886256Y-54899500D01*
X68591244Y-54899500D01*
X68591236Y-54899500D01*
X68312835Y-54936153D01*
X68298757Y-54938007D01*
X68013798Y-55014361D01*
X68013788Y-55014364D01*
X67741249Y-55127254D01*
X67741239Y-55127258D01*
X67485756Y-55274761D01*
X67251709Y-55454352D01*
X67251702Y-55454358D01*
X67043108Y-55662952D01*
X67043102Y-55662959D01*
X66863511Y-55897006D01*
X66716008Y-56152489D01*
X66716004Y-56152499D01*
X66603114Y-56425038D01*
X66603111Y-56425048D01*
X66537662Y-56669311D01*
X66526758Y-56710004D01*
X66526756Y-56710015D01*
X66488250Y-57002486D01*
X64749604Y-57002486D01*
X64732152Y-56892299D01*
X64678623Y-56727555D01*
X64599982Y-56573212D01*
X64498164Y-56433072D01*
X64375678Y-56310586D01*
X64235538Y-56208768D01*
X64132374Y-56156204D01*
X64081197Y-56130128D01*
X64081196Y-56130127D01*
X64081195Y-56130127D01*
X63916451Y-56076598D01*
X63916449Y-56076597D01*
X63916448Y-56076597D01*
X63785021Y-56055781D01*
X63745361Y-56049500D01*
X63572139Y-56049500D01*
X63532478Y-56055781D01*
X63401052Y-56076597D01*
X63401049Y-56076598D01*
X63253088Y-56124674D01*
X63236302Y-56130128D01*
X63081961Y-56208768D01*
X63048970Y-56232738D01*
X62941822Y-56310586D01*
X62941820Y-56310588D01*
X62941819Y-56310588D01*
X62819338Y-56433069D01*
X62819338Y-56433070D01*
X62819336Y-56433072D01*
X62780392Y-56486674D01*
X62717518Y-56573211D01*
X62638878Y-56727552D01*
X62585347Y-56892302D01*
X62558250Y-57063389D01*
X56692000Y-57063389D01*
X56692000Y-46178082D01*
X56711685Y-46111043D01*
X56728314Y-46090406D01*
X63414146Y-39404573D01*
X63475467Y-39371090D01*
X63545159Y-39376074D01*
X63549257Y-39377686D01*
X63669830Y-39427630D01*
X63872780Y-39467999D01*
X63872784Y-39468000D01*
X63872785Y-39468000D01*
X64079716Y-39468000D01*
X64079717Y-39467999D01*
X64282670Y-39427630D01*
X64473848Y-39348441D01*
X64645905Y-39233477D01*
X64792227Y-39087155D01*
X64907191Y-38915098D01*
X64986380Y-38723920D01*
X65026750Y-38520965D01*
X65026750Y-38314035D01*
X64986380Y-38111080D01*
X64907191Y-37919902D01*
X64792227Y-37747845D01*
X64792225Y-37747842D01*
X64645907Y-37601524D01*
X64559876Y-37544041D01*
X64473848Y-37486559D01*
X64309274Y-37418390D01*
X64282670Y-37407370D01*
X64282662Y-37407368D01*
X64079719Y-37367000D01*
X64079715Y-37367000D01*
X63872785Y-37367000D01*
X63872780Y-37367000D01*
X63669837Y-37407368D01*
X63669829Y-37407370D01*
X63478653Y-37486558D01*
X63306592Y-37601524D01*
X63160274Y-37747842D01*
X63045308Y-37919903D01*
X62966120Y-38111079D01*
X62966118Y-38111087D01*
X62925750Y-38314030D01*
X62925750Y-38520969D01*
X62966118Y-38723912D01*
X62966121Y-38723924D01*
X63016053Y-38844471D01*
X63023522Y-38913940D01*
X62992247Y-38976419D01*
X62989173Y-38979604D01*
X56502681Y-45466097D01*
X56441358Y-45499582D01*
X56371666Y-45494598D01*
X56315733Y-45452726D01*
X56291316Y-45387262D01*
X56291000Y-45378416D01*
X56291000Y-44039082D01*
X56310685Y-43972043D01*
X56327314Y-43951406D01*
X63414146Y-36864573D01*
X63475467Y-36831090D01*
X63545159Y-36836074D01*
X63549257Y-36837686D01*
X63669830Y-36887630D01*
X63872780Y-36927999D01*
X63872784Y-36928000D01*
X63872785Y-36928000D01*
X64079716Y-36928000D01*
X64079717Y-36927999D01*
X64282670Y-36887630D01*
X64473848Y-36808441D01*
X64645905Y-36693477D01*
X64792227Y-36547155D01*
X64907191Y-36375098D01*
X64986380Y-36183920D01*
X65023924Y-35995173D01*
X65056308Y-35933262D01*
X65117024Y-35898688D01*
X65186794Y-35902427D01*
X65233222Y-35931683D01*
X65691930Y-36390391D01*
X65725415Y-36451714D01*
X65728249Y-36478072D01*
X65728249Y-53334166D01*
X65719603Y-53363610D01*
X65713079Y-53393597D01*
X65709326Y-53398609D01*
X65708564Y-53401205D01*
X65691927Y-53421850D01*
X65677840Y-53435936D01*
X65616516Y-53469419D01*
X65546824Y-53464432D01*
X65533868Y-53458737D01*
X65427976Y-53404782D01*
X65233284Y-53341522D01*
X65058745Y-53313878D01*
X65031102Y-53309500D01*
X64826398Y-53309500D01*
X64802079Y-53313351D01*
X64624215Y-53341522D01*
X64429526Y-53404781D01*
X64247136Y-53497715D01*
X64081536Y-53618028D01*
X63936778Y-53762786D01*
X63816465Y-53928386D01*
X63723531Y-54110776D01*
X63660272Y-54305465D01*
X63628250Y-54507648D01*
X63628250Y-54712351D01*
X63660272Y-54914534D01*
X63723531Y-55109223D01*
X63753913Y-55168849D01*
X63804815Y-55268750D01*
X63816465Y-55291613D01*
X63936778Y-55457213D01*
X64081536Y-55601971D01*
X64219553Y-55702244D01*
X64247140Y-55722287D01*
X64363357Y-55781503D01*
X64429526Y-55815218D01*
X64429528Y-55815218D01*
X64429531Y-55815220D01*
X64515888Y-55843279D01*
X64624215Y-55878477D01*
X64725307Y-55894488D01*
X64826398Y-55910500D01*
X64826399Y-55910500D01*
X65031101Y-55910500D01*
X65031102Y-55910500D01*
X65233284Y-55878477D01*
X65427969Y-55815220D01*
X65610360Y-55722287D01*
X65714448Y-55646663D01*
X65775963Y-55601971D01*
X65775965Y-55601968D01*
X65775969Y-55601966D01*
X65920716Y-55457219D01*
X65920718Y-55457215D01*
X65920721Y-55457213D01*
X65973482Y-55384590D01*
X66041037Y-55291610D01*
X66133970Y-55109219D01*
X66197227Y-54914534D01*
X66229250Y-54712352D01*
X66229250Y-54507648D01*
X82678250Y-54507648D01*
X82678250Y-54712351D01*
X82710272Y-54914534D01*
X82773531Y-55109223D01*
X82803913Y-55168849D01*
X82854815Y-55268750D01*
X82866465Y-55291613D01*
X82986778Y-55457213D01*
X83131536Y-55601971D01*
X83269553Y-55702244D01*
X83297140Y-55722287D01*
X83413357Y-55781503D01*
X83479526Y-55815218D01*
X83479528Y-55815218D01*
X83479531Y-55815220D01*
X83565888Y-55843279D01*
X83674215Y-55878477D01*
X83775307Y-55894488D01*
X83876398Y-55910500D01*
X83876399Y-55910500D01*
X84081101Y-55910500D01*
X84081102Y-55910500D01*
X84283284Y-55878477D01*
X84477969Y-55815220D01*
X84660360Y-55722287D01*
X84764448Y-55646663D01*
X84825963Y-55601971D01*
X84825965Y-55601968D01*
X84825969Y-55601966D01*
X84970716Y-55457219D01*
X84970718Y-55457215D01*
X84970721Y-55457213D01*
X85023482Y-55384590D01*
X85091037Y-55291610D01*
X85183970Y-55109219D01*
X85247227Y-54914534D01*
X85279250Y-54712352D01*
X85279250Y-54507648D01*
X85247227Y-54305466D01*
X85183970Y-54110781D01*
X85183968Y-54110778D01*
X85183968Y-54110776D01*
X85130011Y-54004881D01*
X85091037Y-53928390D01*
X85054295Y-53877818D01*
X84970721Y-53762786D01*
X84825963Y-53618028D01*
X84660363Y-53497715D01*
X84660362Y-53497714D01*
X84660360Y-53497713D01*
X84603403Y-53468691D01*
X84477973Y-53404781D01*
X84283284Y-53341522D01*
X84108745Y-53313878D01*
X84081102Y-53309500D01*
X83876398Y-53309500D01*
X83852079Y-53313351D01*
X83674215Y-53341522D01*
X83479526Y-53404781D01*
X83297136Y-53497715D01*
X83131536Y-53618028D01*
X82986778Y-53762786D01*
X82866465Y-53928386D01*
X82773531Y-54110776D01*
X82710272Y-54305465D01*
X82678250Y-54507648D01*
X66229250Y-54507648D01*
X66197227Y-54305466D01*
X66133970Y-54110781D01*
X66133968Y-54110778D01*
X66133968Y-54110776D01*
X66080011Y-54004881D01*
X66067115Y-53936212D01*
X66093391Y-53871471D01*
X66102804Y-53860915D01*
X66269209Y-53694512D01*
X66308771Y-53625989D01*
X66329249Y-53549563D01*
X66329249Y-53470439D01*
X66329249Y-51967682D01*
X69978750Y-51967682D01*
X69978750Y-52172317D01*
X70010759Y-52374417D01*
X70073994Y-52569031D01*
X70166890Y-52751349D01*
X70273663Y-52898308D01*
X70273664Y-52898309D01*
X70667223Y-52504749D01*
X70696187Y-52548097D01*
X70800653Y-52652563D01*
X70843999Y-52681525D01*
X70450439Y-53075085D01*
X70597400Y-53181859D01*
X70779718Y-53274755D01*
X70974332Y-53337990D01*
X71176433Y-53370000D01*
X71381067Y-53370000D01*
X71583167Y-53337990D01*
X71777781Y-53274755D01*
X71960099Y-53181859D01*
X72107058Y-53075085D01*
X72107059Y-53075084D01*
X71713500Y-52681525D01*
X71756847Y-52652563D01*
X71861313Y-52548097D01*
X71890276Y-52504750D01*
X72283834Y-52898309D01*
X72283835Y-52898308D01*
X72390609Y-52751349D01*
X72483505Y-52569031D01*
X72546740Y-52374417D01*
X72578750Y-52172317D01*
X72578750Y-51967682D01*
X89028750Y-51967682D01*
X89028750Y-52172317D01*
X89060759Y-52374417D01*
X89123994Y-52569031D01*
X89216890Y-52751349D01*
X89323663Y-52898308D01*
X89323664Y-52898309D01*
X89717223Y-52504749D01*
X89746187Y-52548097D01*
X89850653Y-52652563D01*
X89893999Y-52681525D01*
X89500439Y-53075085D01*
X89647400Y-53181859D01*
X89829718Y-53274755D01*
X90024332Y-53337990D01*
X90226433Y-53370000D01*
X90431067Y-53370000D01*
X90633167Y-53337990D01*
X90827781Y-53274755D01*
X91010099Y-53181859D01*
X91157058Y-53075085D01*
X91157059Y-53075084D01*
X90763500Y-52681525D01*
X90806847Y-52652563D01*
X90911313Y-52548097D01*
X90940276Y-52504750D01*
X91333834Y-52898309D01*
X91333835Y-52898308D01*
X91440609Y-52751349D01*
X91533505Y-52569031D01*
X91596740Y-52374417D01*
X91628750Y-52172317D01*
X91628750Y-51967682D01*
X91596740Y-51765582D01*
X91533505Y-51570968D01*
X91440609Y-51388650D01*
X91333835Y-51241690D01*
X91333835Y-51241689D01*
X90940275Y-51635248D01*
X90911313Y-51591903D01*
X90806847Y-51487437D01*
X90763499Y-51458473D01*
X91157059Y-51064914D01*
X91157058Y-51064913D01*
X91010099Y-50958140D01*
X90827781Y-50865244D01*
X90633167Y-50802009D01*
X90431067Y-50770000D01*
X90226433Y-50770000D01*
X90024332Y-50802009D01*
X89829718Y-50865244D01*
X89647399Y-50958141D01*
X89647390Y-50958147D01*
X89500440Y-51064912D01*
X89500439Y-51064913D01*
X89894000Y-51458473D01*
X89850653Y-51487437D01*
X89746187Y-51591903D01*
X89717223Y-51635249D01*
X89323663Y-51241689D01*
X89323662Y-51241690D01*
X89216897Y-51388640D01*
X89216891Y-51388649D01*
X89123994Y-51570968D01*
X89060759Y-51765582D01*
X89028750Y-51967682D01*
X72578750Y-51967682D01*
X72546740Y-51765582D01*
X72483505Y-51570968D01*
X72390609Y-51388650D01*
X72283835Y-51241690D01*
X72283835Y-51241689D01*
X71890275Y-51635248D01*
X71861313Y-51591903D01*
X71756847Y-51487437D01*
X71713499Y-51458473D01*
X72107059Y-51064914D01*
X72107058Y-51064913D01*
X71960099Y-50958140D01*
X71777781Y-50865244D01*
X71583167Y-50802009D01*
X71381067Y-50770000D01*
X71176433Y-50770000D01*
X70974332Y-50802009D01*
X70779718Y-50865244D01*
X70597399Y-50958141D01*
X70597390Y-50958147D01*
X70450440Y-51064912D01*
X70450439Y-51064913D01*
X70844000Y-51458473D01*
X70800653Y-51487437D01*
X70696187Y-51591903D01*
X70667223Y-51635249D01*
X70273663Y-51241689D01*
X70273662Y-51241690D01*
X70166897Y-51388640D01*
X70166891Y-51388649D01*
X70073994Y-51570968D01*
X70010759Y-51765582D01*
X69978750Y-51967682D01*
X66329249Y-51967682D01*
X66329249Y-36262677D01*
X66308770Y-36186250D01*
X66304241Y-36178405D01*
X66269213Y-36117734D01*
X66269207Y-36117726D01*
X64637522Y-34486041D01*
X64637514Y-34486035D01*
X64569005Y-34446482D01*
X64569002Y-34446480D01*
X64568999Y-34446479D01*
X64568995Y-34446478D01*
X64561492Y-34443370D01*
X64562681Y-34440497D01*
X64515575Y-34411777D01*
X64485053Y-34348926D01*
X64493357Y-34279551D01*
X64537849Y-34225679D01*
X64538197Y-34225444D01*
X64645905Y-34153477D01*
X64792227Y-34007155D01*
X64907191Y-33835098D01*
X64986380Y-33643920D01*
X65026750Y-33440965D01*
X65026750Y-33234035D01*
X64986380Y-33031080D01*
X64907191Y-32839902D01*
X64792227Y-32667845D01*
X64792225Y-32667842D01*
X64645907Y-32521524D01*
X64559876Y-32464041D01*
X64473848Y-32406559D01*
X64282670Y-32327370D01*
X64282662Y-32327368D01*
X64079719Y-32287000D01*
X64079715Y-32287000D01*
X63872785Y-32287000D01*
X63872780Y-32287000D01*
X63669837Y-32327368D01*
X63669829Y-32327370D01*
X63478653Y-32406558D01*
X63306592Y-32521524D01*
X63160274Y-32667842D01*
X63045308Y-32839903D01*
X62995375Y-32960453D01*
X62951534Y-33014856D01*
X62885240Y-33036921D01*
X62880814Y-33037000D01*
X59842808Y-33037000D01*
X59804594Y-33047239D01*
X59766379Y-33057479D01*
X59766374Y-33057482D01*
X59697865Y-33097035D01*
X59697857Y-33097041D01*
X45546936Y-47247961D01*
X45485613Y-47281446D01*
X45441380Y-47282985D01*
X45422615Y-47280251D01*
X45410594Y-47278500D01*
X44124406Y-47278500D01*
X44067244Y-47286828D01*
X44055811Y-47288494D01*
X43949999Y-47340222D01*
X43866722Y-47423499D01*
X43820252Y-47518557D01*
X43814994Y-47529312D01*
X43805000Y-47597906D01*
X43805000Y-49792094D01*
X43814994Y-49860688D01*
X43866721Y-49966498D01*
X43950002Y-50049779D01*
X43950003Y-50049779D01*
X43952167Y-50051943D01*
X43952809Y-50052223D01*
X43956004Y-50055780D01*
X43957267Y-50057043D01*
X43957199Y-50057110D01*
X43976392Y-50078478D01*
X43990512Y-50099609D01*
X44011390Y-50166287D01*
X43992906Y-50233667D01*
X43940927Y-50280357D01*
X43887410Y-50292500D01*
X43106989Y-50292500D01*
X43039950Y-50272815D01*
X42994195Y-50220011D01*
X42984251Y-50150853D01*
X43003884Y-50099613D01*
X43018248Y-50078114D01*
X43038269Y-50057465D01*
X43037437Y-50056633D01*
X43127865Y-49966204D01*
X43127867Y-49966202D01*
X43179519Y-49860545D01*
X43179520Y-49860542D01*
X43184193Y-49828470D01*
X43184192Y-49828468D01*
X42226793Y-48871069D01*
X42222465Y-48863144D01*
X42215233Y-48857734D01*
X42205980Y-48832954D01*
X42193308Y-48809746D01*
X42193952Y-48800738D01*
X42190793Y-48792278D01*
X42196405Y-48766434D01*
X42198292Y-48740054D01*
X42204096Y-48731018D01*
X42205621Y-48724000D01*
X42226762Y-48695738D01*
X42227499Y-48694999D01*
X42404274Y-48694999D01*
X43189499Y-49480224D01*
X43189500Y-49480223D01*
X43189500Y-47909776D01*
X43189499Y-47909775D01*
X42404274Y-48694999D01*
X42227499Y-48694999D01*
X42226792Y-48694292D01*
X42193307Y-48632969D01*
X42198291Y-48563277D01*
X42226792Y-48518930D01*
X43184192Y-47561530D01*
X43184193Y-47561528D01*
X43179520Y-47529457D01*
X43179519Y-47529454D01*
X43127867Y-47423797D01*
X43044702Y-47340632D01*
X42939045Y-47288980D01*
X42939042Y-47288979D01*
X42870547Y-47279000D01*
X42049207Y-47279000D01*
X41982168Y-47259315D01*
X41936413Y-47206511D01*
X41926469Y-47137353D01*
X41955494Y-47073797D01*
X41961526Y-47067319D01*
X59045526Y-29983319D01*
X59106849Y-29949834D01*
X59133207Y-29947000D01*
X62802250Y-29947000D01*
X62869289Y-29966685D01*
X62915044Y-30019489D01*
X62926250Y-30071000D01*
X62926250Y-30672500D01*
X63492106Y-30672500D01*
X63476250Y-30731674D01*
X63476250Y-30863326D01*
X63492106Y-30922500D01*
X62926250Y-30922500D01*
X62926250Y-31667202D01*
X62937852Y-31725533D01*
X62937853Y-31725534D01*
X62982058Y-31791691D01*
X63048215Y-31835896D01*
X63048216Y-31835897D01*
X63106547Y-31847499D01*
X63106551Y-31847500D01*
X63851250Y-31847500D01*
X63851250Y-31281644D01*
X63910424Y-31297500D01*
X64042076Y-31297500D01*
X64101250Y-31281644D01*
X64101250Y-31847500D01*
X64845949Y-31847500D01*
X64845952Y-31847499D01*
X64904283Y-31835897D01*
X64904284Y-31835896D01*
X64970441Y-31791691D01*
X65014646Y-31725534D01*
X65014647Y-31725533D01*
X65026249Y-31667202D01*
X65026250Y-31667199D01*
X65026250Y-30922500D01*
X64460394Y-30922500D01*
X64476250Y-30863326D01*
X64476250Y-30731674D01*
X64460394Y-30672500D01*
X65026250Y-30672500D01*
X65026250Y-30071000D01*
X65045935Y-30003961D01*
X65098739Y-29958206D01*
X65150250Y-29947000D01*
X81898917Y-29947000D01*
X81965956Y-29966685D01*
X81986598Y-29983319D01*
X102859848Y-50856569D01*
X102893333Y-50917892D01*
X102888349Y-50987584D01*
X102846477Y-51043517D01*
X102781013Y-51067934D01*
X102772167Y-51068250D01*
X101075247Y-51068250D01*
X101016770Y-51079881D01*
X101016769Y-51079882D01*
X100950447Y-51124197D01*
X100906132Y-51190519D01*
X100906131Y-51190520D01*
X100894500Y-51248997D01*
X100894500Y-53288502D01*
X100906131Y-53346979D01*
X100906132Y-53346980D01*
X100950447Y-53413302D01*
X101016769Y-53457617D01*
X101016770Y-53457618D01*
X101075247Y-53469249D01*
X101075250Y-53469250D01*
X101075252Y-53469250D01*
X101485687Y-53469250D01*
X101552726Y-53488935D01*
X101598481Y-53541739D01*
X101608425Y-53610897D01*
X101579400Y-53674453D01*
X101541982Y-53703735D01*
X101466064Y-53742417D01*
X101466062Y-53742418D01*
X101338281Y-53835254D01*
X101338281Y-53835255D01*
X101841046Y-54338020D01*
X101787993Y-54368651D01*
X101694901Y-54461743D01*
X101664270Y-54514796D01*
X101161505Y-54012031D01*
X101161504Y-54012031D01*
X101068668Y-54139812D01*
X101068667Y-54139814D01*
X100982914Y-54308112D01*
X100924548Y-54487747D01*
X100895000Y-54674302D01*
X100895000Y-54863197D01*
X100924548Y-55049752D01*
X100982914Y-55229387D01*
X101068666Y-55397683D01*
X101161505Y-55525467D01*
X101664270Y-55022703D01*
X101694901Y-55075757D01*
X101787993Y-55168849D01*
X101841045Y-55199479D01*
X101338281Y-55702242D01*
X101338281Y-55702243D01*
X101466066Y-55795083D01*
X101634364Y-55880836D01*
X101695057Y-55900556D01*
X101752733Y-55939993D01*
X101779932Y-56004351D01*
X101768018Y-56073197D01*
X101720774Y-56124674D01*
X101695060Y-56136417D01*
X101634167Y-56156202D01*
X101465800Y-56241990D01*
X101378579Y-56305360D01*
X101312927Y-56353060D01*
X101312925Y-56353062D01*
X101312924Y-56353062D01*
X101179312Y-56486674D01*
X101179312Y-56486675D01*
X101179310Y-56486677D01*
X101131610Y-56552329D01*
X101068240Y-56639550D01*
X100982454Y-56807913D01*
X100924059Y-56987631D01*
X100894500Y-57174263D01*
X100894500Y-57363236D01*
X100924059Y-57549868D01*
X100982454Y-57729586D01*
X101052435Y-57866930D01*
X101068240Y-57897949D01*
X101179310Y-58050823D01*
X101312927Y-58184440D01*
X101465801Y-58295510D01*
X101545347Y-58336040D01*
X101634163Y-58381295D01*
X101634165Y-58381295D01*
X101634168Y-58381297D01*
X101700941Y-58402993D01*
X101813881Y-58439690D01*
X102000514Y-58469250D01*
X102000519Y-58469250D01*
X102189486Y-58469250D01*
X102376118Y-58439690D01*
X102555832Y-58381297D01*
X102724199Y-58295510D01*
X102877073Y-58184440D01*
X103010690Y-58050823D01*
X103121760Y-57897949D01*
X103207547Y-57729582D01*
X103265940Y-57549868D01*
X103288457Y-57407701D01*
X103295500Y-57363236D01*
X103295500Y-57174263D01*
X115394500Y-57174263D01*
X115394500Y-57363236D01*
X115424059Y-57549868D01*
X115482454Y-57729586D01*
X115552435Y-57866930D01*
X115568240Y-57897949D01*
X115679310Y-58050823D01*
X115812927Y-58184440D01*
X115965801Y-58295510D01*
X116045347Y-58336040D01*
X116134163Y-58381295D01*
X116134165Y-58381295D01*
X116134168Y-58381297D01*
X116200941Y-58402993D01*
X116313881Y-58439690D01*
X116500514Y-58469250D01*
X116500519Y-58469250D01*
X116689486Y-58469250D01*
X116876118Y-58439690D01*
X117055832Y-58381297D01*
X117224199Y-58295510D01*
X117377073Y-58184440D01*
X117510690Y-58050823D01*
X117621760Y-57897949D01*
X117707547Y-57729582D01*
X117765940Y-57549868D01*
X117788457Y-57407701D01*
X117795500Y-57363236D01*
X117795500Y-57174263D01*
X117765940Y-56987631D01*
X117707545Y-56807913D01*
X117621759Y-56639550D01*
X117510690Y-56486677D01*
X117377073Y-56353060D01*
X117224199Y-56241990D01*
X117206041Y-56232738D01*
X117055836Y-56156204D01*
X116876118Y-56097809D01*
X116689486Y-56068250D01*
X116689481Y-56068250D01*
X116500519Y-56068250D01*
X116500514Y-56068250D01*
X116313881Y-56097809D01*
X116134163Y-56156204D01*
X115965800Y-56241990D01*
X115878579Y-56305360D01*
X115812927Y-56353060D01*
X115812925Y-56353062D01*
X115812924Y-56353062D01*
X115679312Y-56486674D01*
X115679312Y-56486675D01*
X115679310Y-56486677D01*
X115631610Y-56552329D01*
X115568240Y-56639550D01*
X115482454Y-56807913D01*
X115424059Y-56987631D01*
X115394500Y-57174263D01*
X103295500Y-57174263D01*
X103265940Y-56987631D01*
X103234964Y-56892299D01*
X103207547Y-56807918D01*
X103171910Y-56737978D01*
X103159015Y-56669311D01*
X103185291Y-56604570D01*
X103194705Y-56594014D01*
X103636460Y-56152261D01*
X103667897Y-56097810D01*
X103676021Y-56083739D01*
X103696500Y-56007312D01*
X103696500Y-52174263D01*
X115394500Y-52174263D01*
X115394500Y-52363236D01*
X115424059Y-52549868D01*
X115482454Y-52729586D01*
X115528523Y-52820000D01*
X115568240Y-52897949D01*
X115679310Y-53050823D01*
X115812927Y-53184440D01*
X115965801Y-53295510D01*
X116041668Y-53334166D01*
X116134163Y-53381295D01*
X116134165Y-53381295D01*
X116134168Y-53381297D01*
X116206441Y-53404780D01*
X116313881Y-53439690D01*
X116500514Y-53469250D01*
X116500519Y-53469250D01*
X116689486Y-53469250D01*
X116876118Y-53439690D01*
X117055832Y-53381297D01*
X117224199Y-53295510D01*
X117377073Y-53184440D01*
X117510690Y-53050823D01*
X117621760Y-52897949D01*
X117707547Y-52729582D01*
X117765940Y-52549868D01*
X117795500Y-52363236D01*
X117795500Y-52174263D01*
X117765940Y-51987631D01*
X117707545Y-51807913D01*
X117621759Y-51639550D01*
X117510690Y-51486677D01*
X117377073Y-51353060D01*
X117224199Y-51241990D01*
X117223608Y-51241689D01*
X117055836Y-51156204D01*
X116876118Y-51097809D01*
X116689486Y-51068250D01*
X116689481Y-51068250D01*
X116500519Y-51068250D01*
X116500514Y-51068250D01*
X116313881Y-51097809D01*
X116134163Y-51156204D01*
X115965800Y-51241990D01*
X115878579Y-51305360D01*
X115812927Y-51353060D01*
X115812925Y-51353062D01*
X115812924Y-51353062D01*
X115679312Y-51486674D01*
X115679312Y-51486675D01*
X115679310Y-51486677D01*
X115678758Y-51487437D01*
X115568240Y-51639550D01*
X115482454Y-51807913D01*
X115424059Y-51987631D01*
X115394500Y-52174263D01*
X103696500Y-52174263D01*
X103696500Y-50928188D01*
X103676021Y-50851761D01*
X103665455Y-50833460D01*
X103636464Y-50783245D01*
X103636458Y-50783237D01*
X101002218Y-48148997D01*
X107794500Y-48148997D01*
X107794500Y-50188502D01*
X107806131Y-50246979D01*
X107806132Y-50246980D01*
X107850447Y-50313302D01*
X107916769Y-50357617D01*
X107916770Y-50357618D01*
X107975247Y-50369249D01*
X107975250Y-50369250D01*
X107975252Y-50369250D01*
X111214750Y-50369250D01*
X111214751Y-50369249D01*
X111229568Y-50366302D01*
X111273229Y-50357618D01*
X111273229Y-50357617D01*
X111273231Y-50357617D01*
X111339552Y-50313302D01*
X111383867Y-50246981D01*
X111383867Y-50246979D01*
X111383868Y-50246979D01*
X111395499Y-50188502D01*
X111395500Y-50188500D01*
X111395500Y-48148999D01*
X111395499Y-48148997D01*
X111383868Y-48090520D01*
X111383867Y-48090519D01*
X111339552Y-48024197D01*
X111273230Y-47979882D01*
X111273229Y-47979881D01*
X111214752Y-47968250D01*
X111214748Y-47968250D01*
X107975252Y-47968250D01*
X107975247Y-47968250D01*
X107916770Y-47979881D01*
X107916769Y-47979882D01*
X107850447Y-48024197D01*
X107806132Y-48090519D01*
X107806131Y-48090520D01*
X107794500Y-48148997D01*
X101002218Y-48148997D01*
X82259262Y-29406041D01*
X82259254Y-29406035D01*
X82190745Y-29366482D01*
X82190740Y-29366479D01*
X82165263Y-29359652D01*
X82114312Y-29346000D01*
X58996936Y-29346000D01*
X58917812Y-29346000D01*
X58841384Y-29366478D01*
X58772863Y-29406040D01*
X58772860Y-29406042D01*
X40924041Y-47254861D01*
X40924035Y-47254869D01*
X40884482Y-47323378D01*
X40884479Y-47323383D01*
X40864000Y-47399813D01*
X40864000Y-47451518D01*
X40844315Y-47518557D01*
X40791511Y-47564312D01*
X40722353Y-47574256D01*
X40658797Y-47545231D01*
X40628600Y-47505979D01*
X40588278Y-47423500D01*
X40505000Y-47340222D01*
X40399188Y-47288494D01*
X40330594Y-47278500D01*
X39044406Y-47278500D01*
X38987244Y-47286828D01*
X38975811Y-47288494D01*
X38869999Y-47340222D01*
X38786722Y-47423499D01*
X38740252Y-47518557D01*
X38734994Y-47529312D01*
X38725000Y-47597906D01*
X38725000Y-49792094D01*
X38734994Y-49860688D01*
X38734994Y-49860689D01*
X38734995Y-49860691D01*
X38760744Y-49913362D01*
X38772504Y-49982235D01*
X38745160Y-50046532D01*
X38737025Y-50055503D01*
X38439989Y-50352540D01*
X38384041Y-50408487D01*
X38384035Y-50408495D01*
X38344482Y-50477004D01*
X38344479Y-50477009D01*
X38337020Y-50504847D01*
X38324000Y-50553438D01*
X37088432Y-50553438D01*
X37088432Y-37997648D01*
X41562000Y-37997648D01*
X41562000Y-38202351D01*
X41594022Y-38404534D01*
X41657281Y-38599223D01*
X41750215Y-38781613D01*
X41870528Y-38947213D01*
X42015286Y-39091971D01*
X42170249Y-39204556D01*
X42180890Y-39212287D01*
X42297107Y-39271503D01*
X42363276Y-39305218D01*
X42363278Y-39305218D01*
X42363281Y-39305220D01*
X42467637Y-39339127D01*
X42557965Y-39368477D01*
X42616165Y-39377695D01*
X42760148Y-39400500D01*
X42760149Y-39400500D01*
X42964851Y-39400500D01*
X42964852Y-39400500D01*
X43167034Y-39368477D01*
X43361719Y-39305220D01*
X43544110Y-39212287D01*
X43637090Y-39144732D01*
X43709713Y-39091971D01*
X43709715Y-39091968D01*
X43709719Y-39091966D01*
X43854466Y-38947219D01*
X43854468Y-38947215D01*
X43854471Y-38947213D01*
X43929116Y-38844471D01*
X43974787Y-38781610D01*
X44067720Y-38599219D01*
X44130977Y-38404534D01*
X44163000Y-38202352D01*
X44163000Y-37997648D01*
X44130977Y-37795466D01*
X44067720Y-37600781D01*
X44067718Y-37600778D01*
X44067718Y-37600776D01*
X44034003Y-37534607D01*
X43974787Y-37418390D01*
X43966779Y-37407368D01*
X43854471Y-37252786D01*
X43709713Y-37108028D01*
X43544113Y-36987715D01*
X43544112Y-36987714D01*
X43544110Y-36987713D01*
X43487153Y-36958691D01*
X43361723Y-36894781D01*
X43167034Y-36831522D01*
X42992495Y-36803878D01*
X42964852Y-36799500D01*
X42760148Y-36799500D01*
X42735829Y-36803351D01*
X42557965Y-36831522D01*
X42363276Y-36894781D01*
X42180886Y-36987715D01*
X42015286Y-37108028D01*
X41870528Y-37252786D01*
X41750215Y-37418386D01*
X41657281Y-37600776D01*
X41594022Y-37795465D01*
X41562000Y-37997648D01*
X37088432Y-37997648D01*
X37088432Y-31115422D01*
X38153309Y-31115422D01*
X56083165Y-31115422D01*
X56083165Y-28898734D01*
X38153309Y-28898734D01*
X38153309Y-31115422D01*
X37088432Y-31115422D01*
X37088432Y-26818250D01*
X37108117Y-26751211D01*
X37160921Y-26705456D01*
X37212432Y-26694250D01*
X118438000Y-26694250D01*
X118505039Y-26713935D01*
G37*
%TD.AperFunction*%
%TD*%
D23*
X36587932Y-26193750D02*
X119062500Y-26193750D01*
X119062500Y-88106250D01*
X36587932Y-88106250D01*
X36587932Y-26193750D01*
M02*
