%TF.GenerationSoftware,KiCad,Pcbnew,9.0.6-9.0.6~ubuntu22.04.1*%
%TF.CreationDate,2025-12-08T20:59:36+04:00*%
%TF.ProjectId,HackPad,4861636b-5061-4642-9e6b-696361645f70,rev?*%
%TF.SameCoordinates,Original*%
%TF.FileFunction,Soldermask,Top*%
%TF.FilePolarity,Negative*%
%FSLAX46Y46*%
G04 Gerber Fmt 4.6, Leading zero omitted, Abs format (unit mm)*
G04 Created by KiCad (PCBNEW 9.0.6-9.0.6~ubuntu22.04.1) date 2025-12-08 20:59:36*
%MOMM*%
%LPD*%
G01*
G04 APERTURE LIST*
G04 Aperture macros list*
%AMRoundRect*
0 Rectangle with rounded corners*
0 $1 Rounding radius*
0 $2 $3 $4 $5 $6 $7 $8 $9 X,Y pos of 4 corners*
0 Add a 4 corners polygon primitive as box body*
4,1,4,$2,$3,$4,$5,$6,$7,$8,$9,$2,$3,0*
0 Add four circle primitives for the rounded corners*
1,1,$1+$1,$2,$3*
1,1,$1+$1,$4,$5*
1,1,$1+$1,$6,$7*
1,1,$1+$1,$8,$9*
0 Add four rect primitives between the rounded corners*
20,1,$1+$1,$2,$3,$4,$5,0*
20,1,$1+$1,$4,$5,$6,$7,0*
20,1,$1+$1,$6,$7,$8,$9,0*
20,1,$1+$1,$8,$9,$2,$3,0*%
G04 Aperture macros list end*
%ADD10C,1.700000*%
%ADD11C,4.000000*%
%ADD12C,2.200000*%
%ADD13C,2.100000*%
%ADD14R,1.600000X0.850000*%
%ADD15R,1.700000X1.700000*%
%ADD16O,1.700000X1.700000*%
%ADD17R,2.000000X2.000000*%
%ADD18C,2.000000*%
%ADD19R,3.200000X2.000000*%
%ADD20RoundRect,0.152400X-0.609600X1.063600X-0.609600X-1.063600X0.609600X-1.063600X0.609600X1.063600X0*%
%ADD21C,1.524000*%
%ADD22RoundRect,0.152400X0.609600X-1.063600X0.609600X1.063600X-0.609600X1.063600X-0.609600X-1.063600X0*%
%TA.AperFunction,Profile*%
%ADD23C,0.050000*%
%TD*%
G04 APERTURE END LIST*
D10*
%TO.C,SW1*%
X63658750Y-57150000D03*
D11*
X68738750Y-57150000D03*
D10*
X73818750Y-57150000D03*
D12*
X71278750Y-52070000D03*
X64928750Y-54610000D03*
%TD*%
D13*
%TO.C,REF\u002A\u002A*%
X42862500Y-38100000D03*
%TD*%
D10*
%TO.C,SW4*%
X89852500Y-76200000D03*
D11*
X94932500Y-76200000D03*
D10*
X100012500Y-76200000D03*
D12*
X97472500Y-71120000D03*
X91122500Y-73660000D03*
%TD*%
D14*
%TO.C,D1*%
X57463750Y-72943750D03*
X57463750Y-74693750D03*
X60963750Y-74693750D03*
X60963750Y-72943750D03*
%TD*%
D10*
%TO.C,SW3*%
X70802500Y-76200000D03*
D11*
X75882500Y-76200000D03*
D10*
X80962500Y-76200000D03*
D12*
X78422500Y-71120000D03*
X72072500Y-73660000D03*
%TD*%
D15*
%TO.C,J1*%
X63976250Y-30797500D03*
D16*
X63976250Y-33337500D03*
X63976250Y-35877500D03*
X63976250Y-38417500D03*
%TD*%
D14*
%TO.C,D2*%
X57463750Y-80087500D03*
X57463750Y-81837500D03*
X60963750Y-81837500D03*
X60963750Y-80087500D03*
%TD*%
D13*
%TO.C,REF\u002A\u002A*%
X114300000Y-80962500D03*
%TD*%
D10*
%TO.C,SW2*%
X82708750Y-57150000D03*
D11*
X87788750Y-57150000D03*
D10*
X92868750Y-57150000D03*
D12*
X90328750Y-52070000D03*
X83978750Y-54610000D03*
%TD*%
D17*
%TO.C,SW5*%
X102095000Y-52268750D03*
D18*
X102095000Y-57268750D03*
X102095000Y-54768750D03*
D19*
X109595000Y-49168750D03*
X109595000Y-60368750D03*
D18*
X116595000Y-57268750D03*
X116595000Y-52268750D03*
%TD*%
D20*
%TO.C,U1*%
X39687500Y-65605000D03*
D21*
X39687500Y-64770000D03*
D20*
X42227500Y-65605000D03*
D21*
X42227500Y-64770000D03*
D20*
X44767500Y-65605000D03*
D21*
X44767500Y-64770000D03*
D20*
X47307500Y-65605000D03*
D21*
X47307500Y-64770000D03*
D20*
X49847500Y-65605000D03*
D21*
X49847500Y-64770000D03*
D20*
X52387500Y-65605000D03*
D21*
X52387500Y-64770000D03*
D20*
X54927500Y-65605000D03*
D21*
X54927500Y-64770000D03*
X54927500Y-49530000D03*
D22*
X54927500Y-48695000D03*
D21*
X52387500Y-49530000D03*
D22*
X52387500Y-48695000D03*
D21*
X49847500Y-49530000D03*
D22*
X49847500Y-48695000D03*
D21*
X47307500Y-49530000D03*
D22*
X47307500Y-48695000D03*
D21*
X44767500Y-49530000D03*
D22*
X44767500Y-48695000D03*
D21*
X42227500Y-49530000D03*
D22*
X42227500Y-48695000D03*
D21*
X39687500Y-49530000D03*
D22*
X39687500Y-48695000D03*
%TD*%
D23*
X36587932Y-26193750D02*
X119062500Y-26193750D01*
X119062500Y-88106250D01*
X36587932Y-88106250D01*
X36587932Y-26193750D01*
M02*
