%TF.GenerationSoftware,KiCad,Pcbnew,9.0.6-9.0.6~ubuntu22.04.1*%
%TF.CreationDate,2025-12-08T20:59:36+04:00*%
%TF.ProjectId,HackPad,4861636b-5061-4642-9e6b-696361645f70,rev?*%
%TF.SameCoordinates,Original*%
%TF.FileFunction,Legend,Top*%
%TF.FilePolarity,Positive*%
%FSLAX46Y46*%
G04 Gerber Fmt 4.6, Leading zero omitted, Abs format (unit mm)*
G04 Created by KiCad (PCBNEW 9.0.6-9.0.6~ubuntu22.04.1) date 2025-12-08 20:59:36*
%MOMM*%
%LPD*%
G01*
G04 APERTURE LIST*
%ADD10C,0.150000*%
%ADD11C,0.101600*%
%ADD12C,0.120000*%
%ADD13C,0.127000*%
%ADD14C,0.100000*%
%ADD15C,0.504000*%
%TA.AperFunction,Profile*%
%ADD16C,0.050000*%
%TD*%
G04 APERTURE END LIST*
D10*
X67405417Y-49683200D02*
X67548274Y-49730819D01*
X67548274Y-49730819D02*
X67786369Y-49730819D01*
X67786369Y-49730819D02*
X67881607Y-49683200D01*
X67881607Y-49683200D02*
X67929226Y-49635580D01*
X67929226Y-49635580D02*
X67976845Y-49540342D01*
X67976845Y-49540342D02*
X67976845Y-49445104D01*
X67976845Y-49445104D02*
X67929226Y-49349866D01*
X67929226Y-49349866D02*
X67881607Y-49302247D01*
X67881607Y-49302247D02*
X67786369Y-49254628D01*
X67786369Y-49254628D02*
X67595893Y-49207009D01*
X67595893Y-49207009D02*
X67500655Y-49159390D01*
X67500655Y-49159390D02*
X67453036Y-49111771D01*
X67453036Y-49111771D02*
X67405417Y-49016533D01*
X67405417Y-49016533D02*
X67405417Y-48921295D01*
X67405417Y-48921295D02*
X67453036Y-48826057D01*
X67453036Y-48826057D02*
X67500655Y-48778438D01*
X67500655Y-48778438D02*
X67595893Y-48730819D01*
X67595893Y-48730819D02*
X67833988Y-48730819D01*
X67833988Y-48730819D02*
X67976845Y-48778438D01*
X68310179Y-48730819D02*
X68548274Y-49730819D01*
X68548274Y-49730819D02*
X68738750Y-49016533D01*
X68738750Y-49016533D02*
X68929226Y-49730819D01*
X68929226Y-49730819D02*
X69167322Y-48730819D01*
X70072083Y-49730819D02*
X69500655Y-49730819D01*
X69786369Y-49730819D02*
X69786369Y-48730819D01*
X69786369Y-48730819D02*
X69691131Y-48873676D01*
X69691131Y-48873676D02*
X69595893Y-48968914D01*
X69595893Y-48968914D02*
X69500655Y-49016533D01*
X41529166Y-35354819D02*
X41195833Y-34878628D01*
X40957738Y-35354819D02*
X40957738Y-34354819D01*
X40957738Y-34354819D02*
X41338690Y-34354819D01*
X41338690Y-34354819D02*
X41433928Y-34402438D01*
X41433928Y-34402438D02*
X41481547Y-34450057D01*
X41481547Y-34450057D02*
X41529166Y-34545295D01*
X41529166Y-34545295D02*
X41529166Y-34688152D01*
X41529166Y-34688152D02*
X41481547Y-34783390D01*
X41481547Y-34783390D02*
X41433928Y-34831009D01*
X41433928Y-34831009D02*
X41338690Y-34878628D01*
X41338690Y-34878628D02*
X40957738Y-34878628D01*
X41957738Y-34831009D02*
X42291071Y-34831009D01*
X42433928Y-35354819D02*
X41957738Y-35354819D01*
X41957738Y-35354819D02*
X41957738Y-34354819D01*
X41957738Y-34354819D02*
X42433928Y-34354819D01*
X43195833Y-34831009D02*
X42862500Y-34831009D01*
X42862500Y-35354819D02*
X42862500Y-34354819D01*
X42862500Y-34354819D02*
X43338690Y-34354819D01*
X43862500Y-34354819D02*
X43862500Y-34592914D01*
X43624405Y-34497676D02*
X43862500Y-34592914D01*
X43862500Y-34592914D02*
X44100595Y-34497676D01*
X43719643Y-34783390D02*
X43862500Y-34592914D01*
X43862500Y-34592914D02*
X44005357Y-34783390D01*
X44624405Y-34354819D02*
X44624405Y-34592914D01*
X44386310Y-34497676D02*
X44624405Y-34592914D01*
X44624405Y-34592914D02*
X44862500Y-34497676D01*
X44481548Y-34783390D02*
X44624405Y-34592914D01*
X44624405Y-34592914D02*
X44767262Y-34783390D01*
X93599167Y-68733200D02*
X93742024Y-68780819D01*
X93742024Y-68780819D02*
X93980119Y-68780819D01*
X93980119Y-68780819D02*
X94075357Y-68733200D01*
X94075357Y-68733200D02*
X94122976Y-68685580D01*
X94122976Y-68685580D02*
X94170595Y-68590342D01*
X94170595Y-68590342D02*
X94170595Y-68495104D01*
X94170595Y-68495104D02*
X94122976Y-68399866D01*
X94122976Y-68399866D02*
X94075357Y-68352247D01*
X94075357Y-68352247D02*
X93980119Y-68304628D01*
X93980119Y-68304628D02*
X93789643Y-68257009D01*
X93789643Y-68257009D02*
X93694405Y-68209390D01*
X93694405Y-68209390D02*
X93646786Y-68161771D01*
X93646786Y-68161771D02*
X93599167Y-68066533D01*
X93599167Y-68066533D02*
X93599167Y-67971295D01*
X93599167Y-67971295D02*
X93646786Y-67876057D01*
X93646786Y-67876057D02*
X93694405Y-67828438D01*
X93694405Y-67828438D02*
X93789643Y-67780819D01*
X93789643Y-67780819D02*
X94027738Y-67780819D01*
X94027738Y-67780819D02*
X94170595Y-67828438D01*
X94503929Y-67780819D02*
X94742024Y-68780819D01*
X94742024Y-68780819D02*
X94932500Y-68066533D01*
X94932500Y-68066533D02*
X95122976Y-68780819D01*
X95122976Y-68780819D02*
X95361072Y-67780819D01*
X96170595Y-68114152D02*
X96170595Y-68780819D01*
X95932500Y-67733200D02*
X95694405Y-68447485D01*
X95694405Y-68447485D02*
X96313452Y-68447485D01*
X58475655Y-71523569D02*
X58475655Y-70523569D01*
X58475655Y-70523569D02*
X58713750Y-70523569D01*
X58713750Y-70523569D02*
X58856607Y-70571188D01*
X58856607Y-70571188D02*
X58951845Y-70666426D01*
X58951845Y-70666426D02*
X58999464Y-70761664D01*
X58999464Y-70761664D02*
X59047083Y-70952140D01*
X59047083Y-70952140D02*
X59047083Y-71094997D01*
X59047083Y-71094997D02*
X58999464Y-71285473D01*
X58999464Y-71285473D02*
X58951845Y-71380711D01*
X58951845Y-71380711D02*
X58856607Y-71475950D01*
X58856607Y-71475950D02*
X58713750Y-71523569D01*
X58713750Y-71523569D02*
X58475655Y-71523569D01*
X59999464Y-71523569D02*
X59428036Y-71523569D01*
X59713750Y-71523569D02*
X59713750Y-70523569D01*
X59713750Y-70523569D02*
X59618512Y-70666426D01*
X59618512Y-70666426D02*
X59523274Y-70761664D01*
X59523274Y-70761664D02*
X59428036Y-70809283D01*
X56242321Y-73306045D02*
X55785178Y-73306045D01*
X56013750Y-73306045D02*
X56013750Y-72506045D01*
X56013750Y-72506045D02*
X55937559Y-72620330D01*
X55937559Y-72620330D02*
X55861369Y-72696521D01*
X55861369Y-72696521D02*
X55785178Y-72734616D01*
X74549167Y-68733200D02*
X74692024Y-68780819D01*
X74692024Y-68780819D02*
X74930119Y-68780819D01*
X74930119Y-68780819D02*
X75025357Y-68733200D01*
X75025357Y-68733200D02*
X75072976Y-68685580D01*
X75072976Y-68685580D02*
X75120595Y-68590342D01*
X75120595Y-68590342D02*
X75120595Y-68495104D01*
X75120595Y-68495104D02*
X75072976Y-68399866D01*
X75072976Y-68399866D02*
X75025357Y-68352247D01*
X75025357Y-68352247D02*
X74930119Y-68304628D01*
X74930119Y-68304628D02*
X74739643Y-68257009D01*
X74739643Y-68257009D02*
X74644405Y-68209390D01*
X74644405Y-68209390D02*
X74596786Y-68161771D01*
X74596786Y-68161771D02*
X74549167Y-68066533D01*
X74549167Y-68066533D02*
X74549167Y-67971295D01*
X74549167Y-67971295D02*
X74596786Y-67876057D01*
X74596786Y-67876057D02*
X74644405Y-67828438D01*
X74644405Y-67828438D02*
X74739643Y-67780819D01*
X74739643Y-67780819D02*
X74977738Y-67780819D01*
X74977738Y-67780819D02*
X75120595Y-67828438D01*
X75453929Y-67780819D02*
X75692024Y-68780819D01*
X75692024Y-68780819D02*
X75882500Y-68066533D01*
X75882500Y-68066533D02*
X76072976Y-68780819D01*
X76072976Y-68780819D02*
X76311072Y-67780819D01*
X76596786Y-67780819D02*
X77215833Y-67780819D01*
X77215833Y-67780819D02*
X76882500Y-68161771D01*
X76882500Y-68161771D02*
X77025357Y-68161771D01*
X77025357Y-68161771D02*
X77120595Y-68209390D01*
X77120595Y-68209390D02*
X77168214Y-68257009D01*
X77168214Y-68257009D02*
X77215833Y-68352247D01*
X77215833Y-68352247D02*
X77215833Y-68590342D01*
X77215833Y-68590342D02*
X77168214Y-68685580D01*
X77168214Y-68685580D02*
X77120595Y-68733200D01*
X77120595Y-68733200D02*
X77025357Y-68780819D01*
X77025357Y-68780819D02*
X76739643Y-68780819D01*
X76739643Y-68780819D02*
X76644405Y-68733200D01*
X76644405Y-68733200D02*
X76596786Y-68685580D01*
X63642916Y-27482319D02*
X63642916Y-28196604D01*
X63642916Y-28196604D02*
X63595297Y-28339461D01*
X63595297Y-28339461D02*
X63500059Y-28434700D01*
X63500059Y-28434700D02*
X63357202Y-28482319D01*
X63357202Y-28482319D02*
X63261964Y-28482319D01*
X64642916Y-28482319D02*
X64071488Y-28482319D01*
X64357202Y-28482319D02*
X64357202Y-27482319D01*
X64357202Y-27482319D02*
X64261964Y-27625176D01*
X64261964Y-27625176D02*
X64166726Y-27720414D01*
X64166726Y-27720414D02*
X64071488Y-27768033D01*
X58475655Y-78667319D02*
X58475655Y-77667319D01*
X58475655Y-77667319D02*
X58713750Y-77667319D01*
X58713750Y-77667319D02*
X58856607Y-77714938D01*
X58856607Y-77714938D02*
X58951845Y-77810176D01*
X58951845Y-77810176D02*
X58999464Y-77905414D01*
X58999464Y-77905414D02*
X59047083Y-78095890D01*
X59047083Y-78095890D02*
X59047083Y-78238747D01*
X59047083Y-78238747D02*
X58999464Y-78429223D01*
X58999464Y-78429223D02*
X58951845Y-78524461D01*
X58951845Y-78524461D02*
X58856607Y-78619700D01*
X58856607Y-78619700D02*
X58713750Y-78667319D01*
X58713750Y-78667319D02*
X58475655Y-78667319D01*
X59428036Y-77762557D02*
X59475655Y-77714938D01*
X59475655Y-77714938D02*
X59570893Y-77667319D01*
X59570893Y-77667319D02*
X59808988Y-77667319D01*
X59808988Y-77667319D02*
X59904226Y-77714938D01*
X59904226Y-77714938D02*
X59951845Y-77762557D01*
X59951845Y-77762557D02*
X59999464Y-77857795D01*
X59999464Y-77857795D02*
X59999464Y-77953033D01*
X59999464Y-77953033D02*
X59951845Y-78095890D01*
X59951845Y-78095890D02*
X59380417Y-78667319D01*
X59380417Y-78667319D02*
X59999464Y-78667319D01*
X56242321Y-80449795D02*
X55785178Y-80449795D01*
X56013750Y-80449795D02*
X56013750Y-79649795D01*
X56013750Y-79649795D02*
X55937559Y-79764080D01*
X55937559Y-79764080D02*
X55861369Y-79840271D01*
X55861369Y-79840271D02*
X55785178Y-79878366D01*
X112966666Y-78217319D02*
X112633333Y-77741128D01*
X112395238Y-78217319D02*
X112395238Y-77217319D01*
X112395238Y-77217319D02*
X112776190Y-77217319D01*
X112776190Y-77217319D02*
X112871428Y-77264938D01*
X112871428Y-77264938D02*
X112919047Y-77312557D01*
X112919047Y-77312557D02*
X112966666Y-77407795D01*
X112966666Y-77407795D02*
X112966666Y-77550652D01*
X112966666Y-77550652D02*
X112919047Y-77645890D01*
X112919047Y-77645890D02*
X112871428Y-77693509D01*
X112871428Y-77693509D02*
X112776190Y-77741128D01*
X112776190Y-77741128D02*
X112395238Y-77741128D01*
X113395238Y-77693509D02*
X113728571Y-77693509D01*
X113871428Y-78217319D02*
X113395238Y-78217319D01*
X113395238Y-78217319D02*
X113395238Y-77217319D01*
X113395238Y-77217319D02*
X113871428Y-77217319D01*
X114633333Y-77693509D02*
X114300000Y-77693509D01*
X114300000Y-78217319D02*
X114300000Y-77217319D01*
X114300000Y-77217319D02*
X114776190Y-77217319D01*
X115300000Y-77217319D02*
X115300000Y-77455414D01*
X115061905Y-77360176D02*
X115300000Y-77455414D01*
X115300000Y-77455414D02*
X115538095Y-77360176D01*
X115157143Y-77645890D02*
X115300000Y-77455414D01*
X115300000Y-77455414D02*
X115442857Y-77645890D01*
X116061905Y-77217319D02*
X116061905Y-77455414D01*
X115823810Y-77360176D02*
X116061905Y-77455414D01*
X116061905Y-77455414D02*
X116300000Y-77360176D01*
X115919048Y-77645890D02*
X116061905Y-77455414D01*
X116061905Y-77455414D02*
X116204762Y-77645890D01*
X86455417Y-49683200D02*
X86598274Y-49730819D01*
X86598274Y-49730819D02*
X86836369Y-49730819D01*
X86836369Y-49730819D02*
X86931607Y-49683200D01*
X86931607Y-49683200D02*
X86979226Y-49635580D01*
X86979226Y-49635580D02*
X87026845Y-49540342D01*
X87026845Y-49540342D02*
X87026845Y-49445104D01*
X87026845Y-49445104D02*
X86979226Y-49349866D01*
X86979226Y-49349866D02*
X86931607Y-49302247D01*
X86931607Y-49302247D02*
X86836369Y-49254628D01*
X86836369Y-49254628D02*
X86645893Y-49207009D01*
X86645893Y-49207009D02*
X86550655Y-49159390D01*
X86550655Y-49159390D02*
X86503036Y-49111771D01*
X86503036Y-49111771D02*
X86455417Y-49016533D01*
X86455417Y-49016533D02*
X86455417Y-48921295D01*
X86455417Y-48921295D02*
X86503036Y-48826057D01*
X86503036Y-48826057D02*
X86550655Y-48778438D01*
X86550655Y-48778438D02*
X86645893Y-48730819D01*
X86645893Y-48730819D02*
X86883988Y-48730819D01*
X86883988Y-48730819D02*
X87026845Y-48778438D01*
X87360179Y-48730819D02*
X87598274Y-49730819D01*
X87598274Y-49730819D02*
X87788750Y-49016533D01*
X87788750Y-49016533D02*
X87979226Y-49730819D01*
X87979226Y-49730819D02*
X88217322Y-48730819D01*
X88550655Y-48826057D02*
X88598274Y-48778438D01*
X88598274Y-48778438D02*
X88693512Y-48730819D01*
X88693512Y-48730819D02*
X88931607Y-48730819D01*
X88931607Y-48730819D02*
X89026845Y-48778438D01*
X89026845Y-48778438D02*
X89074464Y-48826057D01*
X89074464Y-48826057D02*
X89122083Y-48921295D01*
X89122083Y-48921295D02*
X89122083Y-49016533D01*
X89122083Y-49016533D02*
X89074464Y-49159390D01*
X89074464Y-49159390D02*
X88503036Y-49730819D01*
X88503036Y-49730819D02*
X89122083Y-49730819D01*
X103561667Y-47975950D02*
X103704524Y-48023569D01*
X103704524Y-48023569D02*
X103942619Y-48023569D01*
X103942619Y-48023569D02*
X104037857Y-47975950D01*
X104037857Y-47975950D02*
X104085476Y-47928330D01*
X104085476Y-47928330D02*
X104133095Y-47833092D01*
X104133095Y-47833092D02*
X104133095Y-47737854D01*
X104133095Y-47737854D02*
X104085476Y-47642616D01*
X104085476Y-47642616D02*
X104037857Y-47594997D01*
X104037857Y-47594997D02*
X103942619Y-47547378D01*
X103942619Y-47547378D02*
X103752143Y-47499759D01*
X103752143Y-47499759D02*
X103656905Y-47452140D01*
X103656905Y-47452140D02*
X103609286Y-47404521D01*
X103609286Y-47404521D02*
X103561667Y-47309283D01*
X103561667Y-47309283D02*
X103561667Y-47214045D01*
X103561667Y-47214045D02*
X103609286Y-47118807D01*
X103609286Y-47118807D02*
X103656905Y-47071188D01*
X103656905Y-47071188D02*
X103752143Y-47023569D01*
X103752143Y-47023569D02*
X103990238Y-47023569D01*
X103990238Y-47023569D02*
X104133095Y-47071188D01*
X104466429Y-47023569D02*
X104704524Y-48023569D01*
X104704524Y-48023569D02*
X104895000Y-47309283D01*
X104895000Y-47309283D02*
X105085476Y-48023569D01*
X105085476Y-48023569D02*
X105323572Y-47023569D01*
X106180714Y-47023569D02*
X105704524Y-47023569D01*
X105704524Y-47023569D02*
X105656905Y-47499759D01*
X105656905Y-47499759D02*
X105704524Y-47452140D01*
X105704524Y-47452140D02*
X105799762Y-47404521D01*
X105799762Y-47404521D02*
X106037857Y-47404521D01*
X106037857Y-47404521D02*
X106133095Y-47452140D01*
X106133095Y-47452140D02*
X106180714Y-47499759D01*
X106180714Y-47499759D02*
X106228333Y-47594997D01*
X106228333Y-47594997D02*
X106228333Y-47833092D01*
X106228333Y-47833092D02*
X106180714Y-47928330D01*
X106180714Y-47928330D02*
X106133095Y-47975950D01*
X106133095Y-47975950D02*
X106037857Y-48023569D01*
X106037857Y-48023569D02*
X105799762Y-48023569D01*
X105799762Y-48023569D02*
X105704524Y-47975950D01*
X105704524Y-47975950D02*
X105656905Y-47928330D01*
D11*
X34960979Y-66133809D02*
X35475026Y-66133809D01*
X35475026Y-66133809D02*
X35535502Y-66103571D01*
X35535502Y-66103571D02*
X35565741Y-66073333D01*
X35565741Y-66073333D02*
X35595979Y-66012857D01*
X35595979Y-66012857D02*
X35595979Y-65891904D01*
X35595979Y-65891904D02*
X35565741Y-65831428D01*
X35565741Y-65831428D02*
X35535502Y-65801190D01*
X35535502Y-65801190D02*
X35475026Y-65770952D01*
X35475026Y-65770952D02*
X34960979Y-65770952D01*
X35595979Y-65135952D02*
X35595979Y-65498809D01*
X35595979Y-65317381D02*
X34960979Y-65317381D01*
X34960979Y-65317381D02*
X35051693Y-65377857D01*
X35051693Y-65377857D02*
X35112169Y-65438333D01*
X35112169Y-65438333D02*
X35142407Y-65498809D01*
D12*
%TO.C,SW1*%
X61753750Y-50165000D02*
X75723750Y-50165000D01*
X61753750Y-64135000D02*
X61753750Y-50165000D01*
X75723750Y-50165000D02*
X75723750Y-64135000D01*
X75723750Y-64135000D02*
X61753750Y-64135000D01*
%TO.C,SW4*%
X87947500Y-69215000D02*
X101917500Y-69215000D01*
X87947500Y-83185000D02*
X87947500Y-69215000D01*
X101917500Y-69215000D02*
X101917500Y-83185000D01*
X101917500Y-83185000D02*
X87947500Y-83185000D01*
%TO.C,D1*%
X56413750Y-71818750D02*
X56413750Y-75818750D01*
X56413750Y-71818750D02*
X62013750Y-71818750D01*
X56413750Y-75818750D02*
X61413750Y-75818750D01*
X62013750Y-75218750D02*
X61413750Y-75818750D01*
X62013750Y-75218750D02*
X62013750Y-71818750D01*
%TO.C,SW3*%
X68897500Y-69215000D02*
X82867500Y-69215000D01*
X68897500Y-83185000D02*
X68897500Y-69215000D01*
X82867500Y-69215000D02*
X82867500Y-83185000D01*
X82867500Y-83185000D02*
X68897500Y-83185000D01*
%TO.C,J1*%
X62646250Y-32067500D02*
X62646250Y-39747500D01*
X62646250Y-32067500D02*
X65306250Y-32067500D01*
X62646250Y-39747500D02*
X65306250Y-39747500D01*
X63976250Y-29467500D02*
X65306250Y-29467500D01*
X65306250Y-29467500D02*
X65306250Y-30797500D01*
X65306250Y-32067500D02*
X65306250Y-39747500D01*
%TO.C,D2*%
X56413750Y-78962500D02*
X56413750Y-82962500D01*
X56413750Y-78962500D02*
X62013750Y-78962500D01*
X56413750Y-82962500D02*
X61413750Y-82962500D01*
X62013750Y-82362500D02*
X61413750Y-82962500D01*
X62013750Y-82362500D02*
X62013750Y-78962500D01*
%TO.C,SW2*%
X80803750Y-50165000D02*
X94773750Y-50165000D01*
X80803750Y-64135000D02*
X80803750Y-50165000D01*
X94773750Y-50165000D02*
X94773750Y-64135000D01*
X94773750Y-64135000D02*
X80803750Y-64135000D01*
%TO.C,SW5*%
X101795000Y-50668750D02*
X102395000Y-50668750D01*
X102095000Y-50968750D02*
X101795000Y-50668750D01*
X102395000Y-50668750D02*
X102095000Y-50968750D01*
X103495000Y-48868750D02*
X103495000Y-60668750D01*
X107595000Y-48868750D02*
X103495000Y-48868750D01*
X107595000Y-60668750D02*
X103495000Y-60668750D01*
X109095000Y-54768750D02*
X110095000Y-54768750D01*
X109595000Y-54268750D02*
X109595000Y-55268750D01*
X111595000Y-48868750D02*
X115695000Y-48868750D01*
X115695000Y-48868750D02*
X115695000Y-51268750D01*
X115695000Y-53468750D02*
X115695000Y-56068750D01*
X115695000Y-58268750D02*
X115695000Y-60668750D01*
X115695000Y-60668750D02*
X111595000Y-60668750D01*
X112595000Y-54768750D02*
G75*
G02*
X106595000Y-54768750I-3000000J0D01*
G01*
X106595000Y-54768750D02*
G75*
G02*
X112595000Y-54768750I3000000J0D01*
G01*
D13*
%TO.C,U1*%
X35356500Y-61141272D02*
X35356500Y-53146000D01*
X35856500Y-52646000D02*
X36766500Y-52646000D01*
D14*
X36766500Y-50165000D02*
X36766500Y-64135000D01*
D13*
X36766500Y-50165000D02*
X36766500Y-64135000D01*
X36766500Y-61645000D02*
X35856228Y-61641272D01*
X55816500Y-48260000D02*
X38671500Y-48260000D01*
X55816500Y-66040000D02*
X38671500Y-66040000D01*
X57721500Y-64135000D02*
X57721500Y-50165000D01*
X35356500Y-53146000D02*
G75*
G02*
X35856500Y-52646000I500000J0D01*
G01*
X35856228Y-61641272D02*
G75*
G02*
X35356501Y-61141272I291J500018D01*
G01*
X36766500Y-50165000D02*
G75*
G02*
X38671500Y-48260000I1905000J0D01*
G01*
X38671500Y-66040000D02*
G75*
G02*
X36766500Y-64135000I1J1905001D01*
G01*
X55816500Y-48260000D02*
G75*
G02*
X57721500Y-50165000I0J-1905000D01*
G01*
X57721500Y-64135000D02*
G75*
G02*
X55816500Y-66040000I-1905001J1D01*
G01*
D15*
X37259500Y-66100000D02*
G75*
G02*
X36755500Y-66100000I-252000J0D01*
G01*
X36755500Y-66100000D02*
G75*
G02*
X37259500Y-66100000I252000J0D01*
G01*
X38139500Y-64957000D02*
G75*
G02*
X37635500Y-64957000I-252000J0D01*
G01*
X37635500Y-64957000D02*
G75*
G02*
X38139500Y-64957000I252000J0D01*
G01*
%TD*%
D16*
X36587932Y-26193750D02*
X119062500Y-26193750D01*
X119062500Y-88106250D01*
X36587932Y-88106250D01*
X36587932Y-26193750D01*
M02*
